<svg id="Lockups" xmlns="http://www.w3.org/2000/svg" viewBox="0 0 221.86 43.67">
  <title>logo</title>
  <g>
    <path d="M275.87,204.57a36.87,36.87,0,0,1,4.55-2.09v5s.26,5.67-3.84,5.67c0,0-3.18.06-3.18-3.84a4.72,4.72,0,0,1,2.47-4.69m12.92,11.79V198.58s.08-6.74-6.12-8.9c-5.18-1.83-11.05-.13-15,2.65l.37,3.53c2.62-2.08,6.74-3.66,10.3-2.21a3.72,3.72,0,0,1,.62,6.63c-.25.23-4.1,1.33-4.1,1.33s-9.67,1.84-9.67,7.87,4.72,7.64,8.43,7.64a10.29,10.29,0,0,0,7.09-3v2.23Z" transform="translate(-207.94 -173.46)" fill="#fff"/>
    <path d="M233.66,173.72l-25.72,42.77h4.62l18.66-30.28.94,30.34h2.75l18.81-30.28,0,30.22h8.88V173.72h-6.76c-5.31,8.14-16.1,25-16.1,25v-25Z" transform="translate(-207.94 -173.46)" fill="#fff"/>
    <path d="M355.44,216.48V197.63c0-3.8-1-6.8-6.11-8.71-3.86-.93-7.62.76-10.05,2.78v-18h-8.4v42.7h8.28V198.75s-.55-5,4-5,4.1,5,4.1,5v17.72Z" transform="translate(-207.94 -173.46)" fill="#fff"/>
    <path d="M300.14,193.91v-4.29h-8.09v26.85l8.1,0V206.25s-.81-12.61,8.84-12.61l0-4.27s-4-.87-8.87,4.54" transform="translate(-207.94 -173.46)" fill="#fff"/>
    <rect x="176.9" width="8.25" height="43.05" fill="#fff"/>
    <rect x="188.68" width="8.25" height="43.05" fill="#fff"/>
    <path d="M318.87,191.58a16.78,16.78,0,0,1,7.61,2.27l.38-3.16a14.67,14.67,0,0,0-7.68-2.07c-4.64,0-9.32,2.84-9.32,8a8,8,0,0,0,3.74,7.25l3.86,2s4.41,2.13,4.41,4.89-3.47,3-4.05,3a15.91,15.91,0,0,1-7.81-2.33l-.31,3.41a18.87,18.87,0,0,0,9,2.16s9.41,0,9.41-8.72a8.65,8.65,0,0,0-4.72-8.08l-5-2.32c-3.59-1.38-3.14-3.67-3.14-3.67s-.33-2.64,3.57-2.64" transform="translate(-207.94 -173.46)" fill="#fff"/>
    <path d="M413.29,194.22s-.44,2.29,3.14,3.67l5,2.32a8.65,8.65,0,0,1,4.72,8.08c0,8.72-9.4,8.72-9.4,8.72a18.93,18.93,0,0,1-9-2.16l.31-3.41a16,16,0,0,0,7.81,2.34c.59,0,4.06-.2,4.06-3s-4.41-4.89-4.41-4.89l-3.86-2a8,8,0,0,1-3.75-7.25c0-5.21,4.68-8,9.33-8a14.61,14.61,0,0,1,7.67,2.07l-.37,3.16a16.84,16.84,0,0,0-7.62-2.27c-3.9,0-3.57,2.64-3.57,2.64" transform="translate(-207.94 -173.46)" fill="#fff"/>
    <path d="M368.55,204.57a37.7,37.7,0,0,1,4.56-2.09v5s.26,5.67-3.84,5.67c0,0-3.18.06-3.18-3.84a4.72,4.72,0,0,1,2.46-4.69m12.92,11.79V198.58s.09-6.74-6.11-8.9c-5.19-1.83-11.05-.13-15.05,2.65l.38,3.53c2.62-2.08,6.74-3.66,10.3-2.21a4.15,4.15,0,0,1,2.37,3.72,4.2,4.2,0,0,1-1.75,2.91c-.72.58-4.15,1.27-4.15,1.27s-9.62,1.9-9.62,7.93,4.72,7.64,8.43,7.64a10.29,10.29,0,0,0,7.09-3v2.23Z" transform="translate(-207.94 -173.46)" fill="#fff"/>
    <path d="M427.7,214.5h.23c.26,0,.48-.09.48-.34s-.12-.36-.48-.36l-.23,0Zm0,1.12h-.32v-2a4.15,4.15,0,0,1,.56,0,1.09,1.09,0,0,1,.62.15.5.5,0,0,1,.19.43.49.49,0,0,1-.39.48v0c.17,0,.29.19.33.49a1.67,1.67,0,0,0,.13.5h-.34a1.74,1.74,0,0,1-.13-.51.38.38,0,0,0-.43-.36h-.22ZM428,213a1.53,1.53,0,1,0,1.44,1.53A1.48,1.48,0,0,0,428,213Zm0-.28a1.82,1.82,0,1,1-1.78,1.81,1.77,1.77,0,0,1,1.78-1.81Z" transform="translate(-207.94 -173.46)" fill="#fff"/>
  </g>
</svg>
