<svg id="Layer_1" data-name="Layer 1" xmlns="http://www.w3.org/2000/svg" viewBox="0 0 95.73 77.48">
  <title>note3</title>
  <g>
    <path d="M458.8,475.79a34.07,34.07,0,0,0-27.33-5.42c-7.46,1.74-17.41,7.32-15.55,16.49,2,9.91,16.05,9.94,23.54,7.65s16.11-6.85,20.8-13.34c1.65-2.27-2.13-4.45-3.76-2.19-3.26,4.51-9,7.44-14,9.69-5.67,2.56-21.92,6.19-22.24-3.87C420,477,431.93,474.1,438,473.86a30,30,0,0,1,18.62,5.69c2.29,1.62,4.47-2.16,2.2-3.76Z" transform="translate(-364.94 -426.91)" fill="#fff"/>
    <path d="M460.56,479.42c.06-10.24-.64-20.48-1.36-30.69-.45-6.48-1.48-13.13-1.41-19.64a2.2,2.2,0,0,0-2.18-2.18,431.34,431.34,0,0,0-57.08,7,2.18,2.18,0,0,0-1.6,2.1l6.49,53.4,4.06-1.1a24.29,24.29,0,0,0-24.43-10.68c-7.5,1.38-20,9.53-17.86,18.76,1.8,7.56,15.32,8.31,21.45,7.88a24.58,24.58,0,0,0,20.84-13.76c1.28-2.49-2.48-4.69-3.76-2.2-5.92,11.54-18.79,13.88-30.39,9.86-11.1-3.85,4.9-15.1,10.13-16.2a19.79,19.79,0,0,1,20.26,8.54c1.08,1.6,4.34,1.24,4.06-1.1L401.29,436l-1.6,2.1a420.49,420.49,0,0,1,55.92-6.87l-2.18-2.18c-.06,6.5,1,13.16,1.42,19.64.71,10.21,1.41,20.45,1.35,30.69,0,2.8,4.34,2.81,4.36,0Z" transform="translate(-364.94 -426.91)" fill="#fff"/>
    <path d="M402.92,449.71q25-3.82,50.2-5.23c2.78-.15,2.8-4.51,0-4.35q-25.8,1.46-51.36,5.38c-2.76.42-1.59,4.62,1.16,4.2Z" transform="translate(-364.94 -426.91)" fill="#fff"/>
  </g>
</svg>
