<svg id="Layer_1" data-name="Layer 1" xmlns="http://www.w3.org/2000/svg" viewBox="0 0 63.86 54.3">
  <title>note1</title>
  <g>
    <path d="M261.24,474.42c0,1.74.35,3.62-.42,5.24-1.67,3.53-8,5.92-11.45,5.67-8-.57-7-9.14-.31-11.08,4.41-1.28,9.32,0,13.26,2.05,1.35.71,3.41-.14,3.27-1.88-.89-11.95-1.93-23.9-3.62-35.77-.39-2.76-4.59-1.58-4.2,1.16,1.64,11.48,2.6,23.05,3.47,34.61l3.28-1.88c-6.12-3.19-14.53-4.81-20.69-.73-4.9,3.24-6.41,9.77-2.46,14.37,4.92,5.72,12.87,3.77,18.5.21,4.83-3.05,5.84-6.57,5.72-12-.06-2.8-4.41-2.81-4.35,0Z" transform="translate(-201.75 -436.04)" fill="#fff"/>
    <path d="M229,476c.78,9.81-22.45,15.06-22.65,3.48-.1-6.28,6.95-8.17,12-7.24,4.31.79,8.16,3.27,11.75,5.64a2.19,2.19,0,0,0,3.27-1.88,240,240,0,0,0-5.05-38.41l-2.67,2.68c11.37,1.71,22.83,1,34.28,1.14,2.81,0,2.81-4.31,0-4.35-11-.19-22.17.66-33.13-1a2.21,2.21,0,0,0-2.68,2.68A234.68,234.68,0,0,1,229,476l3.27-1.88c-6.43-4.25-14.35-8.43-22.19-5.57-6,2.19-10.27,8.95-7.36,15.18,5.83,12.46,31.71,5.82,30.63-7.73-.22-2.78-4.58-2.8-4.35,0Z" transform="translate(-201.75 -436.04)" fill="#fff"/>
  </g>
</svg>
