<svg id="Layer_1" data-name="Layer 1" xmlns="http://www.w3.org/2000/svg" viewBox="0 0 62.7 65.6">
  <title>note2</title>
  <path d="M826.25,304.79a36.65,36.65,0,0,1-14.07,9.61c-5.87,2.17-17.15.64-15.81-8,1-6.72,9.86-8.64,15.49-7.53a25.55,25.55,0,0,1,14.39,9c1.57,1.87,3.91-.23,3.64-2.12-1.27-8.67-2.86-17.29-4.88-25.82q-1.62-6.87-3.65-13.64c-.6-2-2.37-4.7-.74-6.5.91-1,4.35-1.25,5.55-1.22,8.23.18,7,10.43,14,12.43,6.82,1.95,11-4.9,14.19-9.61l-4-1.68c-.8,5-2,11-6.93,13.6s-8-1.42-12.23-3-9.93.09-11.12,4.91c-.68,2.72,3.52,3.88,4.2,1.16,1.52-6.15,9.83,1.05,12.73,1.87a11.18,11.18,0,0,0,7.3-.56c6.8-2.82,9.17-10.1,10.25-16.81a2.19,2.19,0,0,0-4-1.68c-3,4.42-8.31,11.54-12.44,4.06-1.46-2.64-2.56-5.22-5.14-7-4.45-3-12.51-2.86-16.39,1.17-2.47,2.55-1.21,4.48-.23,7.55,1.42,4.46,2.66,9,3.79,13.51,2.32,9.37,4.11,18.87,5.51,28.42l3.64-2.12c-5.41-6.43-13.73-11.14-22.34-10.57-6.79.44-14.77,5-15.08,12.56-.34,8.25,7.41,13.18,14.91,13,8.25-.21,17.17-5.8,22.51-11.89,1.84-2.1-1.23-5.19-3.08-3.08Z" transform="translate(-791.9 -254.17)" fill="#fff"/>
</svg>
