<svg id="Layer_1" data-name="Layer 1" xmlns="http://www.w3.org/2000/svg" viewBox="0 0 152.49 150.03">
  <title>sparkle</title>
  <path d="M927.49,319c.57,7.77,1.18,15.53,1.6,23.31.33,6.1.73,12.31,2.8,18.12,1.2,3.39,2.45,7.32,6.24,8.39,2.57.72,5.49,0,7.94-.85,11.68-3.87,22.61-11.37,32.64-18.36l-4.55-5.89a149.23,149.23,0,0,0-13.29,15.13c-4.27,5.58-11.76,15-8,22.54,4.08,8.05,15.93,9.43,23.8,10.17,5.18.5,10.39.58,15.6.63,3.33,0,7.06-.34,10.32.41l1-7.36c-6.09,0-12.2.26-18.26.79-8.58.74-18.56,1.44-26.21,5.8-7.93,4.52-6.17,12.13-2.76,19.23a115.2,115.2,0,0,0,12.94,20.18l5.13-5.13c-8.75-4.93-20.16-11.08-30.47-10.46-8,.47-10.64,8-13,14.65-3.59,10.08-3.59,20.87-3.46,31.44l7.36-1c-.9-6.49-1.62-13-2.9-19.48a64.51,64.51,0,0,0-5.88-17.71c-1.87-3.53-4.67-8.37-8.71-9.7-6.35-2.09-13.36,3.5-18,7.15a105,105,0,0,0-11.63,10.78l5.89,4.54A135.39,135.39,0,0,0,901,419.67c2.34-6.44,5.86-16.15,2-22.68-4.22-7.15-16.76-8.38-24.06-9.27a133.32,133.32,0,0,0-20.56-.94v7.5c11.6-1.56,23.39-2.89,34.48-6.82,6.4-2.27,10-5.54,9.93-12.69-.09-10-5.06-20.47-9.7-29.12l-5.89,4.54a125.8,125.8,0,0,0,11.52,9.48c5.33,3.92,12,8.69,18.94,8.88,8.36.24,12.13-9.32,13.92-16.09,2.85-10.81,2.32-22.25,2.08-33.31-.11-4.82-7.61-4.84-7.5,0,.19,9,.66,18.26-.92,27.2-.86,4.88-2.64,16.09-9.44,14.34-8.67-2.23-16.89-9.8-23.29-15.8a3.77,3.77,0,0,0-5.89,4.55c3.64,6.8,7,14.33,8.33,22,.31,1.78.82,4.36.06,6.1-1.07,2.46-4.3,2.81-6.7,3.57-9.71,3.07-19.87,4.35-29.93,5.7-4.61.62-5,7.66,0,7.5a136.94,136.94,0,0,1,16,.46,81.45,81.45,0,0,1,12.81,2c2.59.64,7.86,1.58,9.38,4,2.85,4.6-1.79,14.47-3.46,18.81a124.33,124.33,0,0,1-5.88,13c-1.91,3.63,2.88,7.79,5.89,4.54a110.6,110.6,0,0,1,8.63-8.28c2.59-2.24,9.33-8.9,13.27-7.87,3.34.88,6.34,9.93,7.26,12.69a90.74,90.74,0,0,1,3.5,15.54c.68,4.52,1.26,9.05,1.89,13.58.59,4.23,7.42,3.14,7.37-1-.11-8.7-.26-17.53,2.09-26,.86-3.08,2.46-9.82,5.11-11.94,1.29-1,3.31-.75,4.86-.56,8.2,1,16.47,5.31,23.61,9.34,3,1.69,7.55-2,5.13-5.13a134.66,134.66,0,0,1-11-16.43c-1.34-2.4-5-7.71-4.09-10.68.49-1.68,3.16-2.58,4.67-3.16,11.72-4.42,25.8-4.51,38.21-4.45,4.15,0,5.19-6.41,1-7.37-6.61-1.52-14-.59-20.71-.85a81.44,81.44,0,0,1-14.19-1.49c-3-.65-7.82-1.61-9.65-4.38-3-4.55,5.64-14,8.29-17.27a146.05,146.05,0,0,1,11.11-12.35c2.94-2.92-1-8.39-4.55-5.89a180.86,180.86,0,0,1-26.34,15.75,39.54,39.54,0,0,1-7.14,2.58c-.6.15-1.8,0-1.17.28,1.17.53,0-.33-.27-1.14-.53-1.51-1.16-2.91-1.6-4.45-1.6-5.61-1.66-11.45-2-17.23-.37-6.65-.93-13.29-1.42-19.93-.35-4.79-7.85-4.82-7.5,0Z" transform="translate(-854.81 -315.44)" fill="#fff"/>
</svg>
