<svg id="Layer_1" data-name="Layer 1" xmlns="http://www.w3.org/2000/svg" viewBox="0 0 192.45 88.78">
  <title>logo</title>
  <polygon points="30.51 43.48 37.39 43.48 37.39 46.66 34.63 46.66 34.63 49.67 37.21 49.67 37.21 52.68 34.63 52.68 34.63 56.17 37.66 56.17 37.66 59.35 30.51 59.35 30.51 43.48" fill="#fff"/>
  <polygon points="56.24 43.48 56.24 46.66 53.79 46.66 53.79 59.35 49.66 59.35 49.66 46.66 47.22 46.66 47.22 43.48 56.24 43.48" fill="#fff"/>
  <polygon points="71.48 43.48 78.36 43.48 78.36 46.66 75.6 46.66 75.6 49.67 78.18 49.67 78.18 52.68 75.6 52.68 75.6 56.17 78.63 56.17 78.63 59.35 71.48 59.35 71.48 43.48" fill="#fff"/>
  <polygon points="79.82 43.48 86.69 43.48 86.69 46.66 83.94 46.66 83.94 49.67 86.52 49.67 86.52 52.68 83.94 52.68 83.94 56.17 86.97 56.17 86.97 59.35 79.82 59.35 79.82 43.48" fill="#fff"/>
  <polygon points="30.51 60.85 37.39 60.85 37.39 64.03 34.63 64.03 34.63 67.03 37.21 67.03 37.21 70.05 34.63 70.05 34.63 73.54 37.66 73.54 37.66 76.72 30.51 76.72 30.51 60.85" fill="#fff"/>
  <polygon points="56.24 60.85 56.24 64.03 53.79 64.03 53.79 76.72 49.66 76.72 49.66 64.03 47.22 64.03 47.22 60.85 56.24 60.85" fill="#fff"/>
  <polygon points="71.52 60.85 78.4 60.85 78.4 64.03 75.65 64.03 75.65 67.03 78.23 67.03 78.23 70.05 75.65 70.05 75.65 73.54 78.67 73.54 78.67 76.72 71.52 76.72 71.52 60.85" fill="#fff"/>
  <polygon points="120.49 60.85 120.49 76.72 116.87 76.72 114.72 69.51 114.72 76.72 111.28 76.72 111.28 60.85 114.72 60.85 117.04 68 117.04 60.85 120.49 60.85" fill="#fff"/>
  <rect x="132.52" y="60.85" width="4.13" height="15.87" fill="#fff"/>
  <rect x="149.38" y="60.85" width="4.12" height="15.87" fill="#fff"/>
  <polygon points="159.29 60.85 159.29 73.54 161.79 73.54 161.79 76.72 155.16 76.72 155.16 60.85 159.29 60.85" fill="#fff"/>
  <rect x="162.8" y="60.85" width="4.13" height="15.87" fill="#fff"/>
  <polygon points="176.89 60.85 176.89 64.03 174.44 64.03 174.44 76.72 170.31 76.72 170.31 64.03 167.87 64.03 167.87 60.85 176.89 60.85" fill="#fff"/>
  <path d="M187.12,60.85l-3,10.12v5.75h-3.82V71l-2.9-10.12h3.78a61.91,61.91,0,0,1,1,6.25q.35-2.53,1.16-6.25Z" fill="#fff"/>
  <path d="M189.68,63H190c.34,0,.64-.13.64-.45s-.17-.46-.64-.46l-.31,0Zm0,1.45h-.42V61.8a6.91,6.91,0,0,1,.75-.06,1.37,1.37,0,0,1,.81.2.62.62,0,0,1,.24.54.65.65,0,0,1-.51.64v0c.23,0,.39.26.44.64a2.05,2.05,0,0,0,.17.65h-.44a1.87,1.87,0,0,1-.18-.67.48.48,0,0,0-.56-.46h-.3Zm.44-3.36a2,2,0,1,0,1.9,2,1.94,1.94,0,0,0-1.9-2Zm0-.36a2.36,2.36,0,1,1-2.34,2.35,2.33,2.33,0,0,1,2.34-2.35Z" fill="#fff"/>
  <g>
    <g>
      <path d="M12.6,85.82c-3.14,0-5.27,0-6.71,0a27.14,27.14,0,0,1-3.22-.08,1.3,1.3,0,0,1-.35-.11A4.1,4.1,0,0,1,0,82.25V77.47H0v-.23c0-.18,0-.45,0-.78V73.64c0-6.57,0-19.87,0-27.45,0-2.85,0-4.87,0-5.49C.1,38.93,1.18,37,2.29,35.19S4.58,31.89,5,31.32a1.24,1.24,0,0,0,0-.46c0-.23,0-.57,0-1,0-.24-.13-4.29-.15-6.14v-.09c0-2.07,1.09-11.81,1.4-14.5a3.73,3.73,0,0,1-.52-1.91A3.14,3.14,0,0,1,6,6.12s.16-.46.29-.94.22-.76.33-1.14a2.22,2.22,0,0,1-.26-1,2.38,2.38,0,0,1,1.14-2,5.66,5.66,0,0,1,2-.77A15.41,15.41,0,0,1,12.67,0,16.16,16.16,0,0,1,14.9.15a7.23,7.23,0,0,1,3,1,2.35,2.35,0,0,1,1.13,2,2.13,2.13,0,0,1-.3,1.1c.25,1,.43,1.72.49,1.92v0a3.16,3.16,0,0,1,.21,1.13,3.75,3.75,0,0,1-.53,1.91c.3,2.65,1.31,12.09,1.32,14.54v.17c-.06,2.46-.07,4.57-.07,6a3.48,3.48,0,0,0,.16,1.44c.08.13,1.23,1.68,2.34,3.5a16.17,16.17,0,0,1,2.48,5.8.94.94,0,1,1-1.88.18,14.8,14.8,0,0,0-2.22-5C20,34,18.9,32.63,18.73,32.36a4.57,4.57,0,0,1-.47-2.47c0-1.46,0-3.59.07-6.07V23.7c0-2.26-1.1-12.58-1.33-14.62a.89.89,0,0,1,.08-.51,1.93,1.93,0,0,1,.2-.36,2,2,0,0,0,.26-1,1.14,1.14,0,0,0-.07-.43A7.92,7.92,0,0,1,17.21,6c-.11-.42-.26-1-.44-1.77A1,1,0,0,1,17,3.32c.13-.15.12-.2.12-.25s0-.19-.3-.4a4,4,0,0,0-1.32-.5,14.5,14.5,0,0,0-2.84-.28,15,15,0,0,0-2,.13,5.64,5.64,0,0,0-2.18.65c-.28.21-.29.27-.3.4l0,0a.55.55,0,0,0,.12.19,1,1,0,0,1,.16.83c-.14.5-.3,1.09-.45,1.58s-.25.88-.34,1.12a1,1,0,0,0-.08.42,2.14,2.14,0,0,0,.26,1,1.69,1.69,0,0,1,.2.36.88.88,0,0,1,.09.51C8,11.15,6.76,21.83,6.77,23.66v.05c0,1.83.15,5.83.15,6.18s0,.66,0,1a2.65,2.65,0,0,1-.36,1.5l0,0C6.11,33,5,34.51,3.89,36.2s-2,3.58-2,4.55c0,.55,0,2.6,0,5.44,0,7.58,0,20.87,0,27.45,0,2.06,0,3.45,0,3.84,0,.07,0,.06,0,.12v4.6A2.4,2.4,0,0,0,3,83.92l.27,0c.38,0,1.14,0,2.6,0s3.55,0,6.71,0c2.79,0,4.77,0,6.18,0,2.53,0,3.26,0,3.41-.06l.07,0c.19,0,.76-.47,1-1.76V80.22a.95.95,0,0,1,1.89,0v2.13c-.28,1.73-1.09,3-2.43,3.38l-.25,0a5.29,5.29,0,0,1-.55,0c-.51,0-1.41,0-3.11,0-1.42,0-3.41,0-6.18,0" fill="#fff"/>
      <path d="M18.1,49.32H14V47.88a7,7,0,0,0-.12-1.7.52.52,0,0,0-.56-.34.53.53,0,0,0-.52.29,4.9,4.9,0,0,0-.13,1.51v7.61a4.67,4.67,0,0,0,.13,1.41.53.53,0,0,0,.55.34.6.6,0,0,0,.61-.39,4.3,4.3,0,0,0,.17-1.48V53.24h-.84V50.83H18.1v8.52H15.51l-.38-1.14a2.88,2.88,0,0,1-1.06,1.1,3,3,0,0,1-1.52.37,4,4,0,0,1-1.94-.5,3.76,3.76,0,0,1-2-2.82,18.28,18.28,0,0,1-.12-2.45V49.2a16,16,0,0,1,.24-3.3A3.44,3.44,0,0,1,10.17,44a5,5,0,0,1,3-.86,5.54,5.54,0,0,1,3,.75,3.47,3.47,0,0,1,1.56,1.76,9.5,9.5,0,0,1,.36,3Z" fill="#fff"/>
      <path d="M23.82,46.2v3.53a1.79,1.79,0,0,0,1-.2c.18-.12.28-.53.28-1.23v-.88a1.33,1.33,0,0,0-.27-1,1.59,1.59,0,0,0-1-.23M19.7,43.48h2.92a22.14,22.14,0,0,1,3.95.23,2.73,2.73,0,0,1,1.69,1.15,5.27,5.27,0,0,1,.65,3,4.55,4.55,0,0,1-.46,2.48,2.42,2.42,0,0,1-1.81.77,3.15,3.15,0,0,1,1.64.81,2.46,2.46,0,0,1,.53.94,14.61,14.61,0,0,1,.1,2.34v4.19H25.08V54.08a3.71,3.71,0,0,0-.2-1.58c-.14-.2-.49-.3-1.06-.3v7.15H19.7Z" fill="#fff"/>
    </g>
    <path d="M43.79,53.69Q43.47,51,43.16,47q-.63,4.56-.79,6.67ZM46,43.48l2.35,15.87H44.12L43.9,56.5H42.42l-.24,2.85H37.91L40,43.48Z" fill="#fff"/>
    <path d="M64.84,52.2v4.44A1.84,1.84,0,0,0,66,56.36a1.92,1.92,0,0,0,.24-1.21V53.68A2.13,2.13,0,0,0,66,52.44a1.93,1.93,0,0,0-1.14-.24m0-6v3.53h.41q.61,0,.78-.3a5,5,0,0,0,.16-1.71,2.86,2.86,0,0,0-.13-1.05.62.62,0,0,0-.36-.37,3.43,3.43,0,0,0-.86-.09m-4.13-2.72h4.12a10.56,10.56,0,0,1,3,.31A2.93,2.93,0,0,1,69.41,45,5.53,5.53,0,0,1,70,48a3.25,3.25,0,0,1-.43,1.94,3.12,3.12,0,0,1-1.72.84,3,3,0,0,1,1.94,1.07,4.15,4.15,0,0,1,.51,2.3v1.47A6,6,0,0,1,70,58a2,2,0,0,1-1.17,1.05,11.92,11.92,0,0,1-3.29.29H60.71Z" fill="#fff"/>
    <g>
      <path d="M92.28,46.2v3.53a1.79,1.79,0,0,0,1-.2c.18-.12.28-.53.28-1.23v-.88a1.33,1.33,0,0,0-.27-1,1.59,1.59,0,0,0-1-.23m-4.12-2.72h2.92a22.22,22.22,0,0,1,4,.23,2.68,2.68,0,0,1,1.68,1.15,5.18,5.18,0,0,1,.66,3,4.65,4.65,0,0,1-.46,2.48,2.43,2.43,0,0,1-1.82.77,3.15,3.15,0,0,1,1.65.81,2.29,2.29,0,0,1,.52.94,14.09,14.09,0,0,1,.11,2.34v4.19H93.54V54.08a3.5,3.5,0,0,0-.21-1.58q-.19-.3-1-.3v7.15H88.16Z" fill="#fff"/>
      <path d="M18.1,66.69H14V65.25a7,7,0,0,0-.12-1.7.61.61,0,0,0-1.08,0A5,5,0,0,0,12.65,65v7.61A4.72,4.72,0,0,0,12.78,74a.54.54,0,0,0,.55.33.59.59,0,0,0,.61-.38,4.33,4.33,0,0,0,.17-1.49V70.61h-.84V68.2H18.1v8.52H15.51l-.38-1.14a2.88,2.88,0,0,1-1.06,1.1,3,3,0,0,1-1.52.37,4,4,0,0,1-1.94-.5,3.76,3.76,0,0,1-2-2.82,18.28,18.28,0,0,1-.12-2.45V66.57a16.19,16.19,0,0,1,.24-3.31,3.45,3.45,0,0,1,1.41-1.88,5,5,0,0,1,3-.86,5.54,5.54,0,0,1,3,.75A3.47,3.47,0,0,1,17.74,63a9.46,9.46,0,0,1,.36,3Z" fill="#fff"/>
      <path d="M23.82,63.57v3.52a1.81,1.81,0,0,0,1-.19c.18-.12.28-.54.28-1.23v-.88a1.33,1.33,0,0,0-.27-1,1.59,1.59,0,0,0-1-.23M19.7,60.85h2.92a22.14,22.14,0,0,1,3.95.23,2.73,2.73,0,0,1,1.69,1.15,5.26,5.26,0,0,1,.65,3,4.57,4.57,0,0,1-.46,2.49,2.42,2.42,0,0,1-1.81.77,3.08,3.08,0,0,1,1.64.81,2.46,2.46,0,0,1,.53.94,14.61,14.61,0,0,1,.1,2.34v4.19H25.08V71.45a3.71,3.71,0,0,0-.2-1.58c-.14-.21-.49-.31-1.06-.31v7.16H19.7Z" fill="#fff"/>
    </g>
    <path d="M43.79,71.05q-.32-2.68-.63-6.66-.63,4.56-.79,6.66ZM46,60.85l2.35,15.87H44.12l-.22-2.85H42.42l-.24,2.85H37.91L40,60.85Z" fill="#fff"/>
    <path d="M64.84,63.57v3.52a1.83,1.83,0,0,0,1-.19c.18-.12.28-.54.28-1.23v-.88a1.33,1.33,0,0,0-.27-1,1.59,1.59,0,0,0-1-.23m-4.13-2.72h2.93a22.22,22.22,0,0,1,4,.23,2.68,2.68,0,0,1,1.68,1.15,5.17,5.17,0,0,1,.66,3,4.67,4.67,0,0,1-.46,2.49,2.45,2.45,0,0,1-1.82.77,3.08,3.08,0,0,1,1.65.81,2.42,2.42,0,0,1,.52.94,14.09,14.09,0,0,1,.11,2.34v4.19H66.1V71.45a3.5,3.5,0,0,0-.21-1.58c-.13-.21-.48-.31-1-.31v7.16H60.71Z" fill="#fff"/>
    <g>
      <path d="M88.6,65.65H84.77V64.48a2.27,2.27,0,0,0-.15-1.05.54.54,0,0,0-.49-.23.63.63,0,0,0-.56.31,1.73,1.73,0,0,0-.19.92,2.69,2.69,0,0,0,.21,1.2,3.27,3.27,0,0,0,1.17,1,11.89,11.89,0,0,1,3.47,2.68,6.14,6.14,0,0,1,.71,3.38,6,6,0,0,1-.39,2.5A3.21,3.21,0,0,1,87,76.51a6.1,6.1,0,0,1-2.64.54,5.94,5.94,0,0,1-2.83-.63A3,3,0,0,1,80,74.83a8.29,8.29,0,0,1-.36-2.76V71h3.83V73a2.52,2.52,0,0,0,.16,1.15.62.62,0,0,0,.57.25.66.66,0,0,0,.61-.32,1.86,1.86,0,0,0,.2-1,3,3,0,0,0-.38-1.83,11.57,11.57,0,0,0-1.93-1.44,20.12,20.12,0,0,1-2-1.48,3.37,3.37,0,0,1-.82-1.28A5.54,5.54,0,0,1,79.52,65,5.78,5.78,0,0,1,80,62.31,3.07,3.07,0,0,1,81.49,61,6,6,0,0,1,84,60.52a6.46,6.46,0,0,1,2.73.52,2.89,2.89,0,0,1,1.51,1.31A7,7,0,0,1,88.6,65Z" fill="#fff"/>
      <path d="M94.36,63.57v4h.31a1,1,0,0,0,.79-.27,2.16,2.16,0,0,0,.22-1.17v-1.3a1.53,1.53,0,0,0-.26-1.06,1.62,1.62,0,0,0-1.06-.24m-4.12-2.72h4.15a9.5,9.5,0,0,1,2.59.27,2.81,2.81,0,0,1,1.36.76A2.55,2.55,0,0,1,99,63.09a10.61,10.61,0,0,1,.17,2.2v1.38a5.74,5.74,0,0,1-.32,2.22A2.17,2.17,0,0,1,97.66,70a5.61,5.61,0,0,1-2.19.37H94.36v6.39H90.24Z" fill="#fff"/>
      <path d="M105.61,64.93a5.06,5.06,0,0,0-.12-1.42.51.51,0,0,0-.51-.31.57.57,0,0,0-.49.25,3.66,3.66,0,0,0-.17,1.48v7.41a7.65,7.65,0,0,0,.11,1.7.49.49,0,0,0,.52.32.5.5,0,0,0,.54-.37,7.69,7.69,0,0,0,.12-1.77Zm4.13,5.21c0,1.6,0,2.72-.11,3.39a3.8,3.8,0,0,1-2.31,3.08,6.47,6.47,0,0,1-4.64,0,3.84,3.84,0,0,1-2.37-3.06,32.84,32.84,0,0,1-.12-3.43V67.43a32.45,32.45,0,0,1,.12-3.39,3.81,3.81,0,0,1,.7-1.82,3.87,3.87,0,0,1,1.6-1.26,6.47,6.47,0,0,1,4.64,0,3.69,3.69,0,0,1,1.63,1.24,3.75,3.75,0,0,1,.74,1.82,32.7,32.7,0,0,1,.12,3.43Z" fill="#fff"/>
    </g>
    <path d="M130.88,65.65h-3.83V64.48a2.27,2.27,0,0,0-.15-1.05.53.53,0,0,0-.49-.23.63.63,0,0,0-.56.31,1.73,1.73,0,0,0-.19.92,2.69,2.69,0,0,0,.21,1.2,3.27,3.27,0,0,0,1.17,1,11.75,11.75,0,0,1,3.47,2.68,6.13,6.13,0,0,1,.72,3.38,6,6,0,0,1-.4,2.5,3.23,3.23,0,0,1-1.53,1.35,6.15,6.15,0,0,1-2.65.54,5.91,5.91,0,0,1-2.83-.63,3,3,0,0,1-1.53-1.59,8.29,8.29,0,0,1-.36-2.76V71h3.83V73a2.52,2.52,0,0,0,.16,1.15.62.62,0,0,0,.57.25.65.65,0,0,0,.61-.32,1.76,1.76,0,0,0,.2-1,3,3,0,0,0-.38-1.83A11.57,11.57,0,0,0,125,69.81a18.54,18.54,0,0,1-2-1.48,3.38,3.38,0,0,1-.83-1.28A5.54,5.54,0,0,1,121.8,65a5.78,5.78,0,0,1,.46-2.67A3.12,3.12,0,0,1,123.77,61a6,6,0,0,1,2.51-.48A6.5,6.5,0,0,1,129,61a2.91,2.91,0,0,1,1.5,1.31,7,7,0,0,1,.36,2.68Z" fill="#fff"/>
    <path d="M142.43,69.56V74a1.79,1.79,0,0,0,1.11-.27,1.94,1.94,0,0,0,.24-1.21V71a2.08,2.08,0,0,0-.22-1.23,1.85,1.85,0,0,0-1.13-.25m0-6V67.1h.41c.4,0,.66-.1.77-.3a4.89,4.89,0,0,0,.17-1.71,2.81,2.81,0,0,0-.14-1,.62.62,0,0,0-.36-.37,2.59,2.59,0,0,0-.85-.09m-4.13-2.72h4.11a10.51,10.51,0,0,1,3,.31A2.9,2.9,0,0,1,147,62.39a5.5,5.5,0,0,1,.62,3,3.25,3.25,0,0,1-.44,2,3.09,3.09,0,0,1-1.72.84,3,3,0,0,1,1.94,1.07,4.15,4.15,0,0,1,.51,2.3V73a5.72,5.72,0,0,1-.37,2.38,2,2,0,0,1-1.17,1.06,11.87,11.87,0,0,1-3.29.29H138.3Z" fill="#fff"/>
  </g>
  <g>
    <path d="M34.31,80.45A3.53,3.53,0,1,1,30.78,84,3.53,3.53,0,0,1,34.31,80.45ZM37.21,84a2.9,2.9,0,1,0-2.9,3A2.92,2.92,0,0,0,37.21,84Zm-1,.74a1.73,1.73,0,0,1-1.87,1.47,2.19,2.19,0,0,1,0-4.37,1.72,1.72,0,0,1,1.87,1.47h-.57a1.25,1.25,0,0,0-1.3-.9,1.62,1.62,0,0,0,0,3.23,1.25,1.25,0,0,0,1.3-.9Z" fill="#fff"/>
    <path d="M42.27,87.37H38.51A3.61,3.61,0,0,1,40,84.61l.55-.46a2,2,0,0,0,.9-1.62c0-.58-.26-1.2-1-1.2-1,0-1.07,1.07-1.07,1.45h-.83c0-1.27.53-2.14,1.91-2.14a1.67,1.67,0,0,1,1.8,1.8,2.62,2.62,0,0,1-1.18,2.21l-1,.83a2.1,2.1,0,0,0-.73,1.15h2.89Z" fill="#fff"/>
    <path d="M43,84.1c0-1.48.1-3.46,1.92-3.46s1.92,1.81,1.92,3.46c0,1.43-.11,3.4-1.92,3.4S43,85.7,43,84.1ZM45,86.88c1,0,1.08-1.36,1.08-2.78S46,81.27,45,81.27s-1.09,1.35-1.09,2.83S43.92,86.88,45,86.88Z" fill="#fff"/>
    <path d="M47.86,81.74c.85,0,1.63-.15,1.67-1.1h.57v6.73h-.8V82.31H47.86Z" fill="#fff"/>
    <path d="M53.33,83.79a1.4,1.4,0,0,1-1-1.44,1.72,1.72,0,0,1,3.44,0,1.4,1.4,0,0,1-1,1.44A1.61,1.61,0,0,1,56,85.52a1.93,1.93,0,1,1-3.86,0A1.61,1.61,0,0,1,53.33,83.79Zm.74,3.09c.78,0,1.09-.6,1.09-1.39s-.31-1.39-1.09-1.39S53,84.7,53,85.49,53.29,86.88,54.07,86.88Zm-.89-4.51c0,.63.27,1.1.89,1.1S55,83,55,82.37s-.27-1.1-.88-1.1S53.18,81.73,53.18,82.37Z" fill="#fff"/>
    <path d="M59.2,80.58h1.4L62,86h0l1.36-5.38h1.41v6.79h-.84V81.44h0l-1.5,5.93h-.84l-1.5-5.93h0v5.93H59.2Z" fill="#fff"/>
    <path d="M65.87,80.58h.83v6.79h-.83Z" fill="#fff"/>
    <path d="M67.8,80.58h.84v6H71.4v.74H67.8Z" fill="#fff"/>
    <path d="M72,80.58h.84v6h2.76v.74H72Z" fill="#fff"/>
    <path d="M76.24,80.58h3.51v.75H77.08v2.12H79.6v.75H77.08v2.43h2.78v.74H76.24Z" fill="#fff"/>
    <path d="M80.64,80.58h2.2a1.59,1.59,0,0,1,1.74,1.71,1.58,1.58,0,0,1-1,1.71v0a1.11,1.11,0,0,1,1,1.13l.06,1.16c0,.75.16.94.36,1.06h-1a2.08,2.08,0,0,1-.23-1l-.06-1c-.06-.93-.57-1-1-1H81.48v3h-.84Zm.84,3.08h.82c.5,0,1.4,0,1.4-1.31,0-.66-.45-1.08-1.23-1.08h-1Z" fill="#fff"/>
    <path d="M89.72,85c-.07,1.29-.58,2.46-2.06,2.46-1.93,0-2.19-1.81-2.19-3.52s.32-3.53,2.19-3.53c1.39,0,2,.78,2,2.11h-.88c0-.77-.26-1.42-1.13-1.42-1.16,0-1.31,1.27-1.31,2.84s.15,2.84,1.31,2.84,1.16-.95,1.19-1.78Z" fill="#fff"/>
    <path d="M94.78,84c0,1.71-.32,3.52-2.19,3.52S90.4,85.69,90.4,84s.32-3.53,2.19-3.53S94.78,82.27,94.78,84Zm-3.5,0c0,1.57.15,2.84,1.31,2.84S93.9,85.55,93.9,84s-.15-2.84-1.31-2.84S91.28,82.41,91.28,84Z" fill="#fff"/>
    <path d="M100.06,84c0,1.71-.31,3.52-2.19,3.52S95.69,85.69,95.69,84s.31-3.53,2.18-3.53S100.06,82.27,100.06,84Zm-3.5,0c0,1.57.15,2.84,1.31,2.84s1.32-1.27,1.32-2.84-.16-2.84-1.32-2.84S96.56,82.41,96.56,84Z" fill="#fff"/>
    <path d="M101.06,80.58h2.2A1.59,1.59,0,0,1,105,82.29,1.58,1.58,0,0,1,104,84v0a1.1,1.1,0,0,1,1,1.13l.06,1.16c0,.75.16.94.36,1.06h-1a2.09,2.09,0,0,1-.22-1l-.06-1c-.07-.93-.58-1-1-1H101.9v3h-.84Zm.84,3.08h.83c.49,0,1.4,0,1.4-1.31,0-.66-.45-1.08-1.23-1.08h-1Z" fill="#fff"/>
    <path d="M108.87,82.34c0-.71-.25-1.2-1.05-1.2a1,1,0,0,0-1.12,1.1c0,1.91,3.2.77,3.2,3.25a1.9,1.9,0,0,1-2.11,2c-1.59,0-2.05-.81-2.05-2.26h.83c0,.76.05,1.58,1.28,1.58a1.14,1.14,0,0,0,1.18-1.2c0-1.92-3.21-.81-3.21-3.3a1.78,1.78,0,0,1,2-1.87,1.68,1.68,0,0,1,1.9,1.89Z" fill="#fff"/>
    <path d="M113,80.58h.84v6h2.76v.74H113Z" fill="#fff"/>
    <path d="M117.24,80.58h.84v6h2.76v.74h-3.6Z" fill="#fff"/>
    <path d="M125.61,85c-.07,1.29-.58,2.46-2.06,2.46-1.93,0-2.19-1.81-2.19-3.52s.32-3.53,2.19-3.53c1.39,0,2,.78,2,2.11h-.88c0-.77-.26-1.42-1.13-1.42-1.16,0-1.31,1.27-1.31,2.84s.15,2.84,1.31,2.84,1.16-.95,1.19-1.78Z" fill="#fff"/>
    <path d="M126.54,86.36h.88v.83c0,.72-.06,1.37-.88,1.59v-.45a.66.66,0,0,0,.42-.73v-.23h-.42Z" fill="#fff"/>
    <path d="M134.75,85c-.07,1.29-.58,2.46-2.06,2.46-1.93,0-2.19-1.81-2.19-3.52s.32-3.53,2.19-3.53c1.39,0,2,.78,2,2.11h-.88c0-.77-.26-1.42-1.13-1.42-1.16,0-1.31,1.27-1.31,2.84s.15,2.84,1.31,2.84,1.16-.95,1.19-1.78Z" fill="#fff"/>
    <path d="M139.53,87.37h-.83V84.1h-2.33v3.27h-.84V80.58h.84v2.78h2.33V80.58h.83Z" fill="#fff"/>
    <path d="M140.63,80.58h.84v6.79h-.84Z" fill="#fff"/>
    <path d="M146.72,85c-.07,1.29-.58,2.46-2.06,2.46-1.93,0-2.19-1.81-2.19-3.52s.32-3.53,2.19-3.53c1.39,0,2,.78,2,2.11h-.88c0-.77-.26-1.42-1.13-1.42-1.16,0-1.31,1.27-1.31,2.84s.15,2.84,1.31,2.84,1.16-.95,1.19-1.78Z" fill="#fff"/>
    <path d="M148.83,80.58H150l1.83,6.79h-.88l-.48-1.86h-2.17l-.5,1.86h-.88Zm-.41,4.24h1.83l-.87-3.28h0Z" fill="#fff"/>
    <path d="M155.47,82.47c0-.72-.3-1.33-1.13-1.33-1.16,0-1.31,1.27-1.31,2.84s.15,2.84,1.31,2.84,1.25-1.39,1.25-2.29h-1.34v-.68h2.1v3.52h-.63v-.92h0a1.5,1.5,0,0,1-1.46,1c-1.77,0-2.08-1.7-2.08-3.52s.31-3.53,2.18-3.53a1.87,1.87,0,0,1,2,2Z" fill="#fff"/>
    <path d="M161.63,84c0,1.71-.31,3.52-2.19,3.52s-2.18-1.81-2.18-3.52.31-3.53,2.18-3.53S161.63,82.27,161.63,84Zm-3.5,0c0,1.57.15,2.84,1.31,2.84s1.31-1.27,1.31-2.84-.15-2.84-1.31-2.84S158.13,82.41,158.13,84Z" fill="#fff"/>
    <path d="M162.79,86.36h.87v.83c0,.72-.06,1.37-.87,1.59v-.45a.66.66,0,0,0,.41-.73v-.23h-.41Z" fill="#fff"/>
    <path d="M166.84,80.58h.84v6.79h-.84Z" fill="#fff"/>
    <path d="M168.78,80.58h.84v6h2.75v.74h-3.59Z" fill="#fff"/>
  </g>
</svg>
