<svg id="Layer_1" data-name="Layer 1" xmlns="http://www.w3.org/2000/svg" viewBox="0 0 115.66 20.4">
  <title>ctaTxt</title>
  <g>
    <path d="M7.09,5.17C7,3.46,6.05,3,5.28,3c-1.1,0-1.71.72-1.71,1.95,0,3.38,6.93,5,6.93,10.4,0,3.27-2.2,5.08-5.39,5.08S.14,17.87,0,14.9l3.24-.46c.14,2,.94,3,2,3a1.75,1.75,0,0,0,2-1.81C7.26,11.69.33,10.64.33,5,.33,1.79,2.25,0,5.61,0,8.39,0,10,2,10.34,4.81Z" fill="#fff"/>
    <path d="M14.74,20.13V.27h3.41V8.36h3.63V.27h3.41V20.13H21.78v-8.8H18.15v8.8Z" fill="#fff"/>
    <path d="M30.14,5.09C30.14,2.28,31.79,0,35.36,0s5.23,2.28,5.23,5.09V15.32c0,2.8-1.65,5.08-5.23,5.08s-5.22-2.28-5.22-5.08Zm3.41,10.14c0,1.49.44,2.2,1.81,2.2s1.82-.71,1.82-2.2V5.17c0-1.48-.44-2.2-1.82-2.2s-1.81.72-1.81,2.2Z" fill="#fff"/>
    <path d="M45.54,20.13V.27h4.89c4.21,0,6.16,1.63,6.16,5.86S54.64,12,50.43,12H49v8.14ZM49,9.18h1.32c2.23,0,2.91-.68,2.91-3s-.68-3-2.91-3H49Z" fill="#fff"/>
    <path d="M68.69,20.13V.27h3.17L76,11.63h0V.27h3.08V20.13h-3L71.83,7.73h-.06v12.4Z" fill="#fff"/>
    <path d="M84.09,5.09C84.09,2.28,85.74,0,89.32,0s5.22,2.28,5.22,5.09V15.32c0,2.8-1.65,5.08-5.22,5.08s-5.23-2.28-5.23-5.08ZM87.5,15.23c0,1.49.44,2.2,1.82,2.2s1.81-.71,1.81-2.2V5.17c0-1.48-.44-2.2-1.81-2.2s-1.82.72-1.82,2.2Z" fill="#fff"/>
    <path d="M105.41.27h2.8l2.31,12.65h.06L112.47.27h3.19l-3.49,19.86h-2.86L106.84,7h-.06l-2.31,13.12h-2.86L97.84.27H101l2.09,12.65h.06Z" fill="#fff"/>
  </g>
</svg>
