<svg id="Layer_1" data-name="Layer 1" xmlns="http://www.w3.org/2000/svg" xmlns:xlink="http://www.w3.org/1999/xlink" viewBox="0 0 117.96 23.62">
  <defs>
    <clipPath id="clip-path" transform="translate(0 0)">
      <rect width="117.96" height="23.62" fill="none"/>
    </clipPath>
  </defs>
  <title>cultureTxt</title>
  <g clip-path="url(#clip-path)">
    <path d="M107.09,8.19H107c-.22.45-.47.58-2.16.64l-1.54.06-.14-1.74V5l2.14.07c.86,0,1.18.14,1.22.6h.1l-.06-.95.06-.89h-.08c-.07.44-.28.47-1.24.47h-2.14V1l2.13.07c.85,0,1.39.08,1.47.61h.08V.28l-3.69.06L101.47.28V.35c.6.07.65.46.65,2.27v4.6c0,1.81-.06,2.23-.65,2.29v.07l1.68-.06,3.8.06ZM100.7,9.58V9.53A7.39,7.39,0,0,1,99.2,8L97,5.15,97,5a2.54,2.54,0,0,0,2.42-2.32c0-2-1.85-2.5-3.46-2.42L95,.35,93.34.28V.35c.6.07.65.46.65,2.27v4.6c0,1.81-.06,2.23-.65,2.29v.07l1.14-.06,1.14.06V9.51C95,9.44,95,9,95,7.22V1h1c1.43,0,2.42.47,2.42,1.7S97.36,4.62,96,4.62h-.56L98,8.11c.88,1.21,1.17,1.47,2.07,1.47Zm-12.88.25c2.56,0,3.74-1.59,3.74-4.06V2.62c0-1.81,0-2.17.63-2.27V.28L91.05.33,89.93.28V.35c.6.07.65.46.65,2.27V5.79c0,1.67-.67,3.34-2.77,3.34S85,7.46,85,5.79V2.62c0-1.81.06-2.2.65-2.27V.28L84.57.33,83.45.28V.35c.6.1.63.46.63,2.27V5.77c0,2.48,1.18,4.06,3.74,4.06M81.22,1c.92,0,1.06.18,1.2.78h.07V.28L79.12.33,75.84.28V1.81h.07c.17-.6.46-.78,1.31-.78h1.4V7.22c0,1.81-.05,2.23-.65,2.29v.07l1.17-.06,1.11.06V9.51c-.6-.07-.65-.49-.65-2.29V1ZM70.9.28V.35c.6.07.65.46.65,2.27v4.6c0,1.81-.06,2.23-.65,2.29v.07l1.63-.06,3.81.06.14-1.43H76.4c-.36.58-.64.63-2.18.68l-1.57.06-.14-1.95V2.62c0-1.81.06-2.2.65-2.27V.28L72.05.33ZM65.37,9.83c2.56,0,3.74-1.59,3.74-4.06V2.62c0-1.81,0-2.17.63-2.27V.28L68.61.33,67.48.28V.35c.6.07.65.46.65,2.27V5.79c0,1.67-.67,3.34-2.77,3.34S62.6,7.46,62.6,5.79V2.62c0-1.81.06-2.2.65-2.27V.28L62.13.33,61,.28V.35c.6.1.63.46.63,2.27V5.77c0,2.48,1.18,4.06,3.74,4.06M60.3,8h-.21a4.34,4.34,0,0,1-3,1.09,3.93,3.93,0,0,1-3.84-4.2C53.21,2,54.72.74,57,.74A3.06,3.06,0,0,1,59.73,2h.07V.35A11,11,0,0,0,57,0a4.7,4.7,0,0,0-4.85,4.91c0,3,1.77,4.91,4.72,4.91A4.8,4.8,0,0,0,60.3,8.58ZM44.46,5.2,47.24,1c.29-.43.49-.59.71-.61V.29l-.88.06L46.23.29V.36c.17,0,.24.08.24.19a1.17,1.17,0,0,1-.21.53L44.2,4.33H44L42,1.17a1.36,1.36,0,0,1-.28-.63c0-.14.06-.18.19-.19V.28L41,.35,40,.28V.35c.42.07.69.58.93.95L43.51,5.2v2c0,1.81-.07,2.23-.67,2.29v.07L44,9.53l1.14.06V9.51c-.6-.07-.64-.49-.65-2.29ZM41,9.58V9.53A7.37,7.37,0,0,1,39.48,8L37.25,5.15,37.32,5a2.54,2.54,0,0,0,2.42-2.32c0-2-1.85-2.5-3.46-2.42l-1,.06L33.62.28V.35c.6.07.65.46.65,2.27v4.6c0,1.81-.06,2.23-.65,2.29v.07l1.14-.06,1.14.06V9.51c-.6-.07-.65-.49-.65-2.29V1h1c1.43,0,2.42.47,2.42,1.7s-1.06,1.91-2.42,1.91h-.56l2.57,3.49c.88,1.21,1.17,1.47,2.07,1.47ZM32.59,8.19h-.1c-.22.45-.47.58-2.16.64l-1.54.06-.14-1.74V5l2.14.07c.86,0,1.18.14,1.22.6h.1l-.06-.95.06-.89H32c-.07.44-.28.47-1.24.47H28.66V1L30.78,1c.85,0,1.39.08,1.47.61h.08V.28L28.66.33,27,.28V.35c.6.07.65.46.65,2.27v4.6c0,1.81-.06,2.23-.65,2.29v.07l1.68-.06,3.8.06ZM21.92,7.82h-.17l-2.5-6.06a2.58,2.58,0,0,1-.28-1c0-.21.1-.33.4-.4V.28l-1.2.06L17.07.28V.35c.28,0,.5.14.74.68l3.94,9.1L25.57,1c.24-.56.42-.65.7-.68V.28l-.92.06L24.23.28V.35c.31.07.4.19.4.4a2.89,2.89,0,0,1-.28,1Zm-5.3.38h-.1c-.22.45-.47.58-2.16.64l-1.54.06-.14-1.74V5l2.14.07c.86,0,1.18.14,1.22.6h.1l-.06-.95.06-.89h-.08c-.07.44-.28.47-1.24.47H12.69V1L14.81,1c.85,0,1.39.08,1.47.61h.08V.28L12.69.33,11,.28V.35c.6.07.65.46.65,2.27v4.6c0,1.81-.06,2.23-.65,2.29v.07l1.68-.06,3.8.06Z" transform="translate(0 0)" fill="#fff"/>
    <path d="M112.56,23a7.46,7.46,0,0,0,2.45.45A2.7,2.7,0,0,0,118,20.78c0-1.43-1-2.11-2.2-2.71l-.49-.25c-1.25-.64-1.77-1.21-1.77-2.07s.63-1.4,1.82-1.4a2.35,2.35,0,0,1,2.16,1.29h.07V14a7,7,0,0,0-2.13-.36c-1.57,0-2.82.83-2.82,2.36,0,1.25.85,1.88,2.14,2.61l.49.28c1.35.76,1.79,1.29,1.79,2.17s-.7,1.61-2,1.61a2.22,2.22,0,0,1-2.35-1.47h-.08Zm-1.08-1.2h-.1c-.22.45-.47.58-2.16.64l-1.54.06-.14-1.74V18.59l2.14.07c.86,0,1.18.14,1.22.6h.1l-.06-.95.06-.89h-.08c-.07.45-.28.47-1.24.47h-2.14V14.57l2.13.07c.85,0,1.39.08,1.47.61h.08V13.87l-3.69.06-1.68-.06v.07c.6.07.65.46.65,2.27v4.6c0,1.81-.06,2.23-.65,2.29v.07l1.68-.06,3.8.06Zm-6.39,1.39v-.06a7.37,7.37,0,0,1-1.5-1.52l-2.23-2.86.07-.11a2.54,2.54,0,0,0,2.42-2.32c0-2-1.85-2.5-3.46-2.42l-1,.06-1.63-.07v.07c.6.07.65.46.65,2.27v4.6c0,1.81-.06,2.23-.65,2.29v.07l1.14-.06,1.14.06v-.07c-.6-.07-.65-.49-.65-2.29v-6.2h1c1.43,0,2.42.47,2.42,1.7s-1.06,1.91-2.42,1.91h-.56l2.57,3.49c.88,1.21,1.17,1.48,2.07,1.48Zm-12.89.25c2.56,0,3.74-1.59,3.74-4.06V16.21c0-1.81,0-2.17.63-2.27v-.07l-1.13.06-1.13-.06v.07c.6.07.65.46.65,2.27v3.17c0,1.67-.67,3.34-2.77,3.34S89.43,21,89.43,19.38V16.21c0-1.81.06-2.2.65-2.27v-.07L89,13.93l-1.13-.06v.07c.6.1.63.46.63,2.27v3.16c0,2.47,1.18,4.06,3.74,4.06m-6.59-8.8c.92,0,1.06.18,1.2.78h.07V13.87l-3.37.06-3.28-.06V15.4h.07c.17-.6.46-.78,1.31-.78H83v6.19c0,1.81-.06,2.23-.65,2.29v.07l1.17-.06,1.11.06v-.07C84,23,84,22.62,84,20.81V14.62Zm-10.32-.75v.07c.6.07.65.46.65,2.27v4.6c0,1.81-.06,2.23-.65,2.29v.07l1.63-.06,3.81.06.14-1.43h-.07c-.36.58-.64.63-2.18.68L77,22.48l-.14-1.95V16.21c0-1.81.06-2.2.65-2.27v-.07l-1.11.06Zm-5.53,9.56c2.56,0,3.74-1.59,3.74-4.06V16.21c0-1.81,0-2.17.63-2.27v-.07L73,13.93l-1.13-.06v.07c.6.07.65.46.65,2.27v3.17c0,1.67-.67,3.34-2.77,3.34S67,21,67,19.38V16.21c0-1.81.06-2.2.65-2.27v-.07l-1.13.06-1.13-.06v.07c.6.1.63.46.63,2.27v3.16c0,2.47,1.18,4.06,3.74,4.06m-5.07-1.81h-.21a4.34,4.34,0,0,1-3,1.08,3.93,3.93,0,0,1-3.84-4.2c0-2.86,1.52-4.17,3.84-4.17a3.06,3.06,0,0,1,2.68,1.31h.07v-1.7a11,11,0,0,0-2.75-.35,4.7,4.7,0,0,0-4.85,4.91c0,3,1.77,4.91,4.72,4.91a4.8,4.8,0,0,0,3.39-1.24ZM49.4,18.79l2.78-4.23c.29-.43.49-.58.71-.61v-.07l-.88.06-.85-.06V14c.17,0,.24.08.24.2a1.17,1.17,0,0,1-.21.53l-2.06,3.24H49l-2-3.16a1.37,1.37,0,0,1-.28-.63c0-.14.06-.18.19-.19v-.07l-1,.07L45,13.87v.07c.42.07.69.58.93.94l2.56,3.91v2c0,1.81-.07,2.23-.67,2.29v.07l1.14-.06,1.14.06v-.07c-.6-.07-.64-.49-.65-2.29Zm-5.86-2.56c0-1.67.07-2.22.67-2.29v-.07l-1,.06-1.07-.06v.07c.6.07.65.63.65,2.29v4.88h-.18l-6.72-7.7v7.4c0,1.67-.06,2.23-.65,2.29v.07l1.06-.06,1,.06v-.07c-.6-.07-.65-.63-.65-2.29V15.89h.17l6.72,7.73ZM28.67,18.95l-.1-.14,1.18-2.95h.14l1.21,2.95-.08.14Zm1.25-5.55-3.84,9c-.24.54-.46.68-.74.71v.07l1-.06,1.11.06v-.07c-.31-.07-.4-.22-.4-.43a2.58,2.58,0,0,1,.28-1l.81-1.92h3.32l.83,1.92a2.35,2.35,0,0,1,.28,1c0,.21-.1.36-.4.43v.07l1.18-.06,1.13.06v-.07c-.28,0-.5-.17-.74-.71Zm-6.47,0-4.09,8.26H19.2l-4.06-8.26-.57,7.9c-.1,1.27-.13,1.77-.72,1.84v.07l1.06-.06,1,.06v-.07c-.58-.1-.67-.57-.57-2l.28-4.35h.15l3.41,6.87,3.42-6.87h.17L23,21c.1,1.59.06,2-.54,2.06v.07l1.21-.06,1.07.06v-.07c-.6-.07-.62-.47-.74-2ZM3.44,23a7.46,7.46,0,0,0,2.45.45,2.7,2.7,0,0,0,2.95-2.64c0-1.43-1-2.11-2.2-2.71l-.49-.25c-1.25-.64-1.77-1.21-1.77-2.07s.63-1.4,1.82-1.4a2.35,2.35,0,0,1,2.16,1.29h.07V14a7,7,0,0,0-2.13-.36c-1.57,0-2.82.83-2.82,2.36,0,1.25.85,1.88,2.14,2.61l.49.28c1.35.76,1.79,1.29,1.79,2.17s-.7,1.61-2,1.61a2.22,2.22,0,0,1-2.35-1.47H3.46ZM0,13.87v.07c.6.07.65.46.65,2.27v4.6C.65,22.62.6,23,0,23.11v.07l1.13-.06,1.11.06v-.07c-.6-.07-.65-.49-.65-2.29v-4.6c0-1.81.06-2.2.65-2.27v-.07l-1.07.06Z" transform="translate(0 0)" fill="#fff"/>
  </g>
</svg>
