<svg id="Layer_1" data-name="Layer 1" xmlns="http://www.w3.org/2000/svg" xmlns:xlink="http://www.w3.org/1999/xlink" viewBox="0 0 203.79 70.06">
  <defs>
    <clipPath id="clip-path" transform="translate(0 0)">
      <rect width="203.79" height="70.06" fill="none"/>
    </clipPath>
  </defs>
  <title>logo</title>
  <rect y="46.35" width="203.79" height="0.91" fill="#fff"/>
  <g clip-path="url(#clip-path)">
    <path d="M24,28.69v0h-.62v0c-.05.3-.46.37-.8.37H9.31A1.73,1.73,0,0,1,8.78,29a.36.36,0,0,1-.27-.29v0H7.88v0l-.44,4.44v.06H8v0c.39-2.3.85-3,2-3h4.75V43.63c0,1.47-.52,1.94-2.13,1.94H11.55v.63h8.81v-.63H19.28c-1.61,0-2.13-.47-2.13-1.94V30.15h4.75c1.11,0,1.57.7,2,3v0h.6v-.06Z" transform="translate(0 0)" fill="#fff"/>
    <path d="M37.27,44.59c.07-1.28.14-2.83.14-5.51,0-2.82-1-4.14-3.12-4.14-1.35,0-2.63.6-4.5,1.69V27.68h-.51L26,28.81h0v.55h0l1.19.16c.55.08.64.27.64.85V43.52c0,1.54-.39,2-1.83,2.06h-.05v.63h5.63v-.63h-.06c-1.4,0-1.74-.31-1.74-1.59V37.44A6.3,6.3,0,0,1,33,36.18c1.12,0,2.46.57,2.46,3.26,0,4.12-.12,5.24-.59,5.72a2.13,2.13,0,0,1-1.51.42h-.06v.63h6.08v-.63h-.06c-1.67,0-2-.32-2-1" transform="translate(0 0)" fill="#fff"/>
    <path d="M43,38.42c.48-1.86,1.47-2.85,2.85-2.85s2.35,1.14,2.66,2.85Zm7.95.1a3.56,3.56,0,0,1-.59-1,3.82,3.82,0,0,0-4-2.59,5,5,0,0,0-4,1.86A6.45,6.45,0,0,0,41,40.86a6.17,6.17,0,0,0,1.4,4,4.51,4.51,0,0,0,3.46,1.63c2.34,0,4.11-1.78,5-2.84l0,0,0,0-.3-.33,0,0,0,0a4.31,4.31,0,0,1-3.47,1.76,4.4,4.4,0,0,1-4.14-4.71,8,8,0,0,1,.1-1.06v0H51v-.71Z" transform="translate(0 0)" fill="#fff"/>
    <path d="M57.47,65.61,56.32,49.44c-.07-1.14.56-1.19,2.24-1.33h.13v-.75H53.32v0L44.73,65.27,36.12,47.39v0H30.6v.75h.05c2.19.14,2.24.76,2.1,3.08L31.9,65.07c-.18,3.31-.56,3.77-3.07,3.77h-.06v.79h7.57v-.78h-.05a3.29,3.29,0,0,1-2.39-.76,1.9,1.9,0,0,1-.42-1.47l1-16,9.14,19v0h.9l0,0,8.92-19,1,15.91A1.89,1.89,0,0,1,54,68a3.63,3.63,0,0,1-2.69.8h-.06v.79h9.35v-.79h-.06c-2.59,0-2.86,0-3.07-3.23" transform="translate(0 0)" fill="#fff"/>
    <path d="M79.63,68c-.75.15-1.14.14-1.35,0s-.24-.39-.24-.84V55H78l-5.52.86h0v.59h0l1.8.32c1.1.2,1.28.46,1.28,1.84v7.65a7.35,7.35,0,0,1-4.22,1.93,3,3,0,0,1-3.18-3.16V55h-.07l-4.62,1h0v.62h0L64.7,57c.7.2.93.54.93,1.41v7.92a3.46,3.46,0,0,0,1.24,2.76,4.13,4.13,0,0,0,2.61.91c1.43,0,3.41-.91,6.05-2.78v2.8l.07,0,4.8-1.42h0v-.76h-.07Z" transform="translate(0 0)" fill="#fff"/>
    <path d="M89.22,61.17c-1.5-.94-2.91-1.84-2.91-3.25a2,2,0,0,1,2.13-2,3,3,0,0,1,2.83,2.93v0H92v-.06l-.07-3.26v0h0A7.8,7.8,0,0,0,89,55c-2.75,0-4.67,1.67-4.67,4.07,0,1.94,1.22,2.74,2.76,3.74a15.84,15.84,0,0,1,2.66,2c1,1,1.12,1.42,1.12,2.13a2.4,2.4,0,0,1-2.49,2.29C86.71,69.25,85.42,68,85,66v0h-.69V66l.4,4v0h.62l0,0a.73.73,0,0,1,.57-.4,2.66,2.66,0,0,1,.71.14l.25.07a4.64,4.64,0,0,0,1.6.25,4.73,4.73,0,0,0,3.2-1.18A3.92,3.92,0,0,0,93,65.93c0-2.38-2-3.64-3.77-4.76" transform="translate(0 0)" fill="#fff"/>
    <path d="M100.26,59.56c.63-2.47,1.92-3.78,3.73-3.78s3.08,1.52,3.49,3.78Zm9.58-1.18a6.34,6.34,0,0,0-1.51-2.25A5.4,5.4,0,0,0,104.64,55a6.47,6.47,0,0,0-5.15,2.43,8.43,8.43,0,0,0-1.83,5.27,8,8,0,0,0,1.81,5.23A5.84,5.84,0,0,0,104,70c3,0,5.34-2.31,6.44-3.69l0,0,0,0-.39-.43,0,0,0,0a5.63,5.63,0,0,1-4.52,2.29,5.18,5.18,0,0,1-3.75-1.69A6.45,6.45,0,0,1,100,62a10.51,10.51,0,0,1,.13-1.38v-.06h10.5V59.7l0,0a4.68,4.68,0,0,1-.77-1.3" transform="translate(0 0)" fill="#fff"/>
    <path d="M129.93,68c-.75.15-1.14.14-1.35,0s-.24-.39-.24-.84V55h-.06l-5.52.86h0v.59h0l1.8.32c1.1.2,1.28.46,1.28,1.84v7.65a7.35,7.35,0,0,1-4.22,1.93,3,3,0,0,1-3.18-3.16V55h-.07l-4.62,1h0v.62h0L115,57c.71.2.93.54.93,1.41v7.92a3.46,3.46,0,0,0,1.24,2.76,4.13,4.13,0,0,0,2.61.91c1.43,0,3.41-.91,6.05-2.78v2.8l.07,0,4.8-1.42h0v-.76h-.07Z" transform="translate(0 0)" fill="#fff"/>
    <path d="M161.84,68.84h-1.15c-1.67,0-1.85-1.08-1.85-1.55.11-2.18.11-4.56.11-6.86a7.62,7.62,0,0,0-.83-4A3.05,3.05,0,0,0,155.31,55c-1.8,0-4.11,1.43-6.36,2.82A3.4,3.4,0,0,0,145.51,55c-1.47,0-3.85,1-6.37,2.8V55h-.61l-4.3,1.49h0v.69h0l1.4.18c.76.1,1,.36,1,1.77v7c0,1.75-.4,2.7-2.49,2.7h-.06v.79h7.58v-.79h-.06c-2,0-2.47-.38-2.47-2.16V58.57c2.17-1.42,3.64-2,4.78-2s2.62.79,2.62,3v6.61c0,2-.7,2.7-2.69,2.7h-.06v.79h7.49v-.79h-.06c-1.77,0-2.18-.4-2.18-2.16V58.49c2.09-1.37,3.56-2,4.75-2,1.76,0,2.65,1.35,2.65,4v2.79c0,2.45,0,4.52-.56,5-.29.29-.71.48-1.8.48h-.38v.79h8.2v-.79Z" transform="translate(0 0)" fill="#fff"/>
    <path d="M58.76,3.49h-.06V4.88h.05c4.69.07,5.13,1.81,5.13,6.39V38.14c0,5.45-.7,6.39-5,6.66h-.05V46.2H75.73V44.81h-.06c-5.06,0-6-1.37-6-5.22v-15H82.45c3.45,0,4.72,1.35,4.85,5.16v.05h1.29V17.67H87.3v.05c-.21,3-1.47,4.33-4,4.33H69.71v-16h13c4.11,0,5.59,1.45,5.66,5.56v.06H89.7V3.49H58.76Z" transform="translate(0 0)" fill="#fff"/>
    <path d="M104.44,40.95V17.84h-1.11l-9,3.09h0v1.18h0l3.25.62c1.75.33,2.1.63,2.1,3.31V39.85c0,3.61-1.54,5-5.68,5H94V46.2h15.43V44.81h-.06c-3.36,0-4.92-1.23-4.92-3.86" transform="translate(0 0)" fill="#fff"/>
    <path d="M101.54,7.81a2.9,2.9,0,0,0,3.08-2.66,2.9,2.9,0,0,0-3.08-2.66,3.21,3.21,0,0,0-2.14.78A2.46,2.46,0,0,0,99.4,7a3.21,3.21,0,0,0,2.14.78" transform="translate(0 0)" fill="#fff"/>
    <path d="M119.19,26.89a10.7,10.7,0,0,1,3.37-6,6.15,6.15,0,0,1,3.89-1.3c3.29,0,6,2.93,6.77,7.29Zm18.44-2.27a12,12,0,0,0-2.89-4.25c-1.69-1.45-4-2.15-7.06-2.15a12.45,12.45,0,0,0-9.85,4.62,16,16,0,0,0-3.5,10.07A15.46,15.46,0,0,0,117.8,43,11.15,11.15,0,0,0,126.37,47a13.1,13.1,0,0,0,7-2.16,21.75,21.75,0,0,0,5.36-4.9l0,0,0,0-.76-.83,0,0,0,0c-2.61,3.09-5.31,4.46-8.73,4.46a10,10,0,0,1-7.26-3.29,12.65,12.65,0,0,1-3.19-8.65,20.73,20.73,0,0,1,.25-2.68l0-.16h20.18V27.12l0,0a8.89,8.89,0,0,1-1.5-2.49" transform="translate(0 0)" fill="#fff"/>
    <path d="M156.47,44.81c-2.7,0-4-1.29-4-4.06V0h-1.1l-8.83,2.83h0V4.12h.05l3.11.34c1.93.21,2.09.82,2.09,2.69V40.27c0,3.39-1.43,4.54-5.68,4.54h-.06V46.2H157.7V44.81h-1.23Z" transform="translate(0 0)" fill="#fff"/>
    <path d="M183,40.58C179.93,42.74,177,44,174.9,44c-4.95,0-9-5.64-9-12.57a13.19,13.19,0,0,1,2.44-8,7.93,7.93,0,0,1,6.47-3.22c3.29,0,5.75,1.53,8.21,5.11Zm9.69,1.49-1.66.48a2.88,2.88,0,0,1-2.54-.15,2.43,2.43,0,0,1-.77-2.06V0l-.07,0-9.61,2.83h0V4.12h0l2.29.27c2.19.27,2.66.6,2.66,1.87V19.47a21.08,21.08,0,0,0-6.75-1.26,14.77,14.77,0,0,0-10.73,4.54,15.74,15.74,0,0,0-4.35,11,14.62,14.62,0,0,0,3.23,9.4,10.24,10.24,0,0,0,7.9,3.88c2.62,0,6.23-1.62,10.71-4.8V47h.9l8.82-3.41h0V42Z" transform="translate(0 0)" fill="#fff"/>
  </g>
</svg>
