<svg id="Layer_1" data-name="Layer 1" xmlns="http://www.w3.org/2000/svg" viewBox="0 0 1256.35 250.04">
  <defs>
    <style>
      .cls-1 {
        fill: #4fc1e8;
      }

      .cls-2 {
        fill: #967adc;
      }
    </style>
  </defs>
  <title>bg2</title>
  <polygon class="cls-1" points="1240.92 55.66 1240.92 55.66 1219.1 55.66 1217.91 55.66 1120.9 55.66 1129.91 38.41 1221.58 38.41 1229.75 0.04 987.02 0.04 977.38 0.04 553.2 0.04 515.5 177.16 482.33 177.16 473.38 194.41 488.81 194.41 488.81 194.41 510.63 194.41 511.82 194.41 608.83 194.42 599.82 201.67 508.15 201.67 499.98 250.04 977.38 250.04 987.02 250.04 1176.54 250.04 1214.24 72.92 1247.4 72.92 1256.35 55.66 1240.92 55.66"/>
  <polygon class="cls-2" points="615.91 190.08 656.36 0 416.26 0 404 0 68.83 0 63.42 25.41 158.8 25.41 149.8 42.66 59.75 42.66 59.75 42.67 30.77 42.66 8.94 42.66 0 59.92 56.08 59.92 15.62 250 404 250 416.26 250 603.15 250 608.56 224.59 534.18 224.59 543.18 207.34 612.23 207.34 612.23 207.33 641.22 207.34 663.04 207.34 671.98 190.08 615.91 190.08"/>
</svg>
