<svg id="Layer_1" data-name="Layer 1" xmlns="http://www.w3.org/2000/svg" viewBox="0 0 98.91 36.08">
  <defs>
    <style>
      .cls-1 {
        fill: #fff;
      }
    </style>
  </defs>
  <title>logo</title>
  <path class="cls-1" d="M32.14,28.14c5.14,0,7.88-3.24,7.88-7.52,0-2.73-2.2-5.24-5.89-5.24H29.17L26.46,28.14ZM32,18.57h1.68a2.36,2.36,0,0,1,2.64,2.57A3.56,3.56,0,0,1,32.54,25H30.67Z"/>
  <polygon class="cls-1" points="45.41 18.47 51.65 18.47 52.31 15.39 42.53 15.39 39.81 28.14 49.6 28.14 50.26 25.06 44.01 25.06 44.4 23.23 50.25 23.23 50.9 20.15 45.05 20.15 45.41 18.47"/>
  <path class="cls-1" d="M55.52,23.61h.16l2.69,4.53h4l-3-4.65c3-.51,4-2.4,4-4.34S61.78,15.39,59,15.39H53.74L51,28.14h3.54Zm1.08-5.12h1.88c.83,0,1.35.37,1.35,1s-.51,1.28-1.74,1.28h-2Z"/>
  <path class="cls-1" d="M75.42,18.49c0-1.57-1.52-3.11-4.32-3.11H65.67L63,28.14h6c3.41,0,4.95-1.17,5.5-3.4a2.45,2.45,0,0,0-1.42-3,3.44,3.44,0,0,0,2.35-3.29M71,24.34c-.19.7-.72,1-1.71,1H67.09l.46-2.19h2.21c1,0,1.42.55,1.25,1.2m-.87-4h-2l.46-2.12h2a1,1,0,0,1,1.12,1c0,.55-.4,1.16-1.58,1.16"/>
  <polygon class="cls-1" points="80.85 20.08 79.27 15.39 75.59 15.39 78.65 23.04 77.56 28.14 81.1 28.14 82.13 23.31 88.39 15.39 84.35 15.39 80.85 20.08"/>
  <path class="cls-1" d="M89,15.84l-.11,0q-.12-.05-.12-.14a.12.12,0,0,1,0-.1.17.17,0,0,1,.12,0l.1,0a.24.24,0,0,1,.07.09l.14-.08a.34.34,0,0,0-.31-.19.35.35,0,0,0-.24.09.27.27,0,0,0-.1.21.32.32,0,0,0,.23.29L89,16,89,16l.05,0,0,.05a.2.2,0,0,1,0,.06.19.19,0,0,1-.05.14.2.2,0,0,1-.29,0,.3.3,0,0,1,0-.14l-.17,0a.41.41,0,0,0,.12.25.38.38,0,0,0,.51,0,.35.35,0,0,0,.11-.26.31.31,0,0,0-.06-.2.49.49,0,0,0-.2-.14"/>
  <polygon class="cls-1" points="90.09 16.18 89.7 15.3 89.46 16.52 89.64 16.52 89.76 15.83 90.08 16.57 90.42 15.83 90.53 16.52 90.71 16.52 90.49 15.3 90.09 16.18"/>
  <path class="cls-1" d="M65.92,33.94v0"/>
  <path class="cls-1" d="M81.77,35a.54.54,0,0,0-.54.54.53.53,0,0,0,.54.54.54.54,0,0,0,.53-.54.53.53,0,0,0-.53-.54m0,1a.43.43,0,0,1-.42-.44.43.43,0,0,1,.42-.43.43.43,0,0,1,.42.44.42.42,0,0,1-.42.43"/>
  <path class="cls-1" d="M81.81,35.53a.17.17,0,0,0,.16-.18c0-.09-.06-.15-.2-.15H81.6v.6h.1v-.27h0l.18.27H82l-.13-.19-.06-.09m-.11-.06v-.19h.07c.08,0,.11,0,.11.08s0,.11-.13.11Z"/>
  <path class="cls-1" d="M63.83,31.92a2,2,0,0,0-2.16,1.92h-1.5c-.05.45-.28.87-.83.88-.83,0-1-.76-1-1.5s.19-1.5,1-1.5a.77.77,0,0,1,.8.72h1.64a2.17,2.17,0,0,0-2.4-2.08,2.61,2.61,0,0,0-2.72,2.85,2.54,2.54,0,0,0,2.69,2.86,2.25,2.25,0,0,0,2.34-1.7A2.17,2.17,0,0,0,66,34v0a2,2,0,0,0-2.16-2.06m0,3.06c-.57,0-.65-.56-.65-1s.08-1,.65-1,.65.56.65,1-.08,1-.65,1"/>
  <path class="cls-1" d="M79.41,32.35h0a1.25,1.25,0,0,0-1.08-.45C77,31.9,76.59,33,76.59,34s.36,2.1,1.68,2.1a1.27,1.27,0,0,0,1.19-.54h0V36h1.48V30.53H79.41ZM78.8,35c-.54,0-.66-.51-.66-1s.12-1,.66-1,.66.51.66,1-.12,1-.66,1"/>
  <path class="cls-1" d="M71.18,31.9a1.55,1.55,0,0,0-1.35.62,1.18,1.18,0,0,0-1.07-.62,1.43,1.43,0,0,0-1.3.63h0V32H66v4H67.5V33.81c0-.41.13-.71.51-.71s.5.34.5.71V36H70V33.81c0-.41.13-.71.51-.71s.49.34.49.71V36h1.51V34.22l-1.1,1.68L72.31,34l-1.16.1,1.15-.41-1.88-1.6,2.12,1.36v-.25a1.25,1.25,0,0,0-1.36-1.34"/>
  <polygon class="cls-1" points="72.72 33.25 74.29 30.59 72.89 33.58 76.47 33.04 72.96 33.87 75.22 35.9 72.72 34.1 72.72 35.96 76.53 35.96 76.53 34.56 74.4 34.56 74.4 33.88 76.53 33.88 76.53 32.58 74.4 32.58 74.4 31.9 76.54 31.9 76.54 30.53 72.72 30.53 72.72 33.25"/>
  <path class="cls-1" d="M26.61,32.9H25.4v3h.79v-1h.45c.69,0,1.08-.31,1.08-1s-.45-1-1.11-1m-.29,1.4h-.13v-.76h.13c.31,0,.57,0,.57.39s-.28.37-.57.37"/>
  <path class="cls-1" d="M29.9,32.8a1.62,1.62,0,1,0,1.68,1.57A1.63,1.63,0,0,0,29.9,32.8m0,2.48a.87.87,0,0,1-.86-.91.86.86,0,0,1,1.72,0,.87.87,0,0,1-.86.91"/>
  <polygon class="cls-1" points="35.03 34.87 35.03 34.87 34.43 32.9 33.8 32.9 33.16 34.87 33.15 34.87 32.62 32.9 31.8 32.9 32.71 35.95 33.51 35.95 34.11 34.18 34.12 34.18 34.65 35.95 35.46 35.95 36.43 32.9 35.61 32.9 35.03 34.87"/>
  <polygon class="cls-1" points="36.86 35.95 38.59 35.95 38.59 35.28 37.65 35.28 37.65 34.75 38.55 34.75 38.55 34.08 37.65 34.08 37.65 33.57 38.59 33.57 38.59 32.9 36.86 32.9 36.86 35.95"/>
  <path class="cls-1" d="M41.56,33.84c0-.65-.46-.94-1.06-.94H39.32v3h.79V34.78h0l.75,1.17h1l-1-1.25a.82.82,0,0,0,.67-.86m-1.37.43h-.08v-.76h.08c.26,0,.55,0,.55.38s-.29.38-.55.38"/>
  <polygon class="cls-1" points="42.3 35.95 44.03 35.95 44.03 35.28 43.09 35.28 43.09 34.75 43.98 34.75 43.98 34.08 43.09 34.08 43.09 33.57 44.03 33.57 44.03 32.9 42.3 32.9 42.3 35.95"/>
  <path class="cls-1" d="M45.79,32.9H44.67v3h1.12a1.52,1.52,0,1,0,0-3m-.15,2.37h-.18v-1.7h.18a.85.85,0,1,1,0,1.7"/>
  <path class="cls-1" d="M51,34.33h0a.63.63,0,0,0,.33-.62c0-.58-.36-.79-.9-.79H49.3v3h1.22c.56,0,1.1-.21,1.1-.85a.68.68,0,0,0-.62-.78m-.91-.82h.06c.21,0,.46,0,.46.29s-.22.3-.43.3h-.09Zm.1,1.83h-.1v-.65h.08c.26,0,.65,0,.65.33s-.4.32-.63.32"/>
  <polygon class="cls-1" points="53.36 33.73 52.79 32.91 51.84 32.91 52.96 34.49 52.96 35.95 53.76 35.95 53.76 34.49 54.88 32.91 53.93 32.91 53.36 33.73"/>
  <polygon class="cls-1" points="35.93 0.24 32.39 0.24 29.69 12.99 33.22 12.99 35.93 0.24"/>
  <path class="cls-1" d="M42.15,13.21a6.43,6.43,0,0,0,5.48-2.79L45,8.3a3.28,3.28,0,0,1-2.8,1.6A2.71,2.71,0,0,1,39.44,7,3.43,3.43,0,0,1,42.8,3.32a2.8,2.8,0,0,1,2.73,1.8l3.13-1.67A5.82,5.82,0,0,0,43,0a6.93,6.93,0,0,0-7.14,7.23c0,3.54,2.54,6,6.31,6"/>
  <polygon class="cls-1" points="57.95 12.99 58.61 9.91 52.36 9.91 52.75 8.08 58.6 8.08 59.26 5 53.41 5 53.76 3.32 60.01 3.32 60.66 0.24 50.88 0.24 48.17 12.99 57.95 12.99"/>
  <path class="cls-1" d="M65.42,13c3.41,0,4.95-1.18,5.5-3.4a2.45,2.45,0,0,0-1.42-3,3.44,3.44,0,0,0,2.35-3.29c0-1.57-1.52-3.11-4.32-3.1H62.09L59.38,13ZM65,3.06h2a1,1,0,0,1,1.12,1c0,.55-.4,1.16-1.58,1.16h-2ZM64,8h2.21c1,0,1.42.55,1.25,1.2s-.72,1-1.71,1H63.52Z"/>
  <path class="cls-1" d="M78.46,13.23a7,7,0,0,0,7.09-7.17C85.55,2.41,82.91,0,79.22,0a7,7,0,0,0-7.09,7.17c0,3.64,2.63,6.06,6.32,6.06M79,3.32a2.75,2.75,0,0,1,2.9,3,3.41,3.41,0,0,1-3.32,3.64,2.75,2.75,0,0,1-2.9-3A3.41,3.41,0,0,1,79,3.32"/>
  <polygon class="cls-1" points="98.92 0.24 94.87 0.24 91.94 3.98 90.59 0.24 86.93 0.24 89.57 6.42 84.04 12.99 88.17 12.99 91.12 9.29 92.64 12.99 96.31 12.99 93.5 6.73 98.92 0.24"/>
  <polygon class="cls-1" points="11.23 0.24 10.57 3.37 14.05 3.37 13.41 4.6 4.79 4.6 4.14 5.86 10.04 5.88 9.44 8.65 14.75 8.65 14.09 9.91 5.62 9.91 4.97 11.17 8.9 11.17 8.52 12.99 26.15 12.99 28.87 0.24 11.23 0.24"/>
  <path class="cls-1" d="M8,15.39l-1.49,7H10L9.35,23.7H.66L0,25H5.94L4.78,30.4h5.28l-.65,1.24H1L.33,32.9H4.24l-.65,3H21.22l4.38-20.56Zm13.36,3.18h1.25L21.22,25H20Z"/>
  <polygon class="cls-1" points="35.93 0.24 32.39 0.24 29.69 12.99 33.22 12.99 35.93 0.24"/>
  <polygon class="cls-1" points="35.93 0.24 32.39 0.24 29.69 12.99 33.22 12.99 35.93 0.24"/>
</svg>
