<svg id="Layer_1" data-name="Layer 1" xmlns="http://www.w3.org/2000/svg" viewBox="0 0 2138.58 250.04">
  <defs>
    <style>
      .cls-1 {
        fill: #66d1c6;
      }

      .cls-2 {
        fill: #fff;
      }

      .cls-3 {
        fill: #ffcf56;
      }

      .cls-4 {
        fill: #4fc1e8;
      }
    </style>
  </defs>
  <title>bg</title>
  <polygon class="cls-1" points="2137.79 0.04 1665.07 0.04 1655.43 0.04 1231.24 0.04 1193.54 177.16 1160.37 177.16 1151.43 194.41 1166.85 194.41 1166.85 194.41 1188.68 194.41 1189.87 194.41 1286.87 194.42 1277.87 211.67 1186.2 211.67 1178.03 250.04 1655.43 250.04 1665.07 250.04 2138.58 250.04 2137.79 0.04"/>
  <g>
    <polygon class="cls-2" points="1259.66 91.54 1259.66 117.61 1660.95 117.61 1666.5 91.54 1259.66 91.54"/>
    <polygon class="cls-2" points="1259.66 122.5 1259.66 164.54 1650.86 164.54 1659.81 122.5 1259.66 122.5"/>
  </g>
  <polygon class="cls-3" points="1339.97 55.66 1339.97 55.66 1318.15 55.66 1316.95 55.66 1219.95 55.66 1228.96 38.41 1320.63 38.41 1328.79 0.04 1086.07 0.04 1076.43 0.04 652.24 0.04 614.54 177.16 581.37 177.16 572.43 194.41 587.85 194.41 587.85 194.41 609.68 194.41 610.87 194.41 707.87 194.42 698.87 201.67 607.2 201.67 599.03 250.04 1076.43 250.04 1086.07 250.04 1275.58 250.04 1313.28 72.92 1346.45 72.92 1355.39 55.66 1339.97 55.66"/>
  <g>
    <polygon class="cls-2" points="709.66 91.54 709.66 117.61 1048.95 117.61 1054.5 91.54 709.66 91.54"/>
    <polygon class="cls-2" points="709.66 122.5 709.66 164.54 1038.86 164.54 1047.81 122.5 709.66 122.5"/>
  </g>
  <polygon class="cls-4" points="714.95 190.08 755.41 0 515.3 0 503.05 0 167.88 0 162.47 25.41 257.85 25.41 248.84 42.66 158.79 42.66 158.79 42.67 129.81 42.66 107.99 42.66 99.05 59.92 155.12 59.92 114.66 250 503.05 250 515.3 250 702.2 250 707.61 224.59 633.23 224.59 642.23 207.34 711.28 207.34 711.28 207.33 740.26 207.34 762.08 207.34 771.03 190.08 714.95 190.08"/>
  <g>
    <polygon class="cls-2" points="530.5 91.54 148.9 91.54 143.35 117.61 524.95 117.61 530.5 91.54"/>
    <polygon class="cls-2" points="523.81 122.5 142.31 122.5 133.36 164.54 514.86 164.54 523.81 122.5"/>
  </g>
  <g>
    <path class="cls-1" d="M1213.37,28.11l-7.49,4.1.45-7a.25.25,0,0,0-.22-.26.24.24,0,0,0-.27.19l-1.07,6L1202,25a.27.27,0,0,0-.33-.14.23.23,0,0,0-.15.29v0l2.78,7.28-6.14-1.23a.25.25,0,0,0-.13.47l5.83,2-2.09,1.74a.23.23,0,0,0,0,.32.26.26,0,0,0,.32.08l2.34-1.11-.27,4.69a.24.24,0,0,0,.21.25.26.26,0,0,0,.28-.19l.86-4.14,2.71,4.72a.25.25,0,0,0,.24.14h.07a.24.24,0,0,0,.14-.3l-2.57-5.45,7.07,1.79a.24.24,0,0,0,.14-.45l-6.7-2.49,7-4.69a.23.23,0,0,0,.06-.31.24.24,0,0,0-.32-.09" transform="translate(0)"/>
    <path class="cls-1" d="M1156.52,72.81l-7.49,4.1.45-6.95a.25.25,0,0,0-.22-.26.24.24,0,0,0-.27.19l-1.07,6-2.78-6.21a.27.27,0,0,0-.33-.14.23.23,0,0,0-.15.29v0l2.78,7.28-6.14-1.23a.25.25,0,0,0-.13.47l5.83,2-2.09,1.74a.23.23,0,0,0,0,.32.26.26,0,0,0,.32.08l2.34-1.11-.27,4.69a.24.24,0,0,0,.21.25.26.26,0,0,0,.28-.19l.86-4.14,2.71,4.72a.25.25,0,0,0,.24.14h.07a.24.24,0,0,0,.14-.3l-2.6-5.57,7.07,1.79a.24.24,0,0,0,.14-.45l-6.7-2.49,7-4.69a.23.23,0,0,0,.06-.31.24.24,0,0,0-.32-.09" transform="translate(0)"/>
  </g>
  <g>
    <path class="cls-3" d="M675.37,178.92l-7.49,4.1.45-6.95a.25.25,0,0,0-.22-.26.24.24,0,0,0-.27.19l-1.07,6L664,175.78a.27.27,0,0,0-.33-.14.23.23,0,0,0-.15.29v0l2.78,7.28L660.16,182a.25.25,0,0,0-.13.47l5.83,2-2.09,1.74a.23.23,0,0,0,0,.32.26.26,0,0,0,.32.08l2.34-1.11-.27,4.69a.24.24,0,0,0,.21.25.26.26,0,0,0,.28-.19l.86-4.14,2.71,4.72a.25.25,0,0,0,.24.14h.07a.24.24,0,0,0,.14-.3l-2.57-5.45,7.07,1.79a.24.24,0,0,0,.14-.45l-6.7-2.49,7-4.69a.23.23,0,0,0,.06-.31.24.24,0,0,0-.32-.09" transform="translate(0)"/>
    <path class="cls-3" d="M618.52,223.62l-7.49,4.1.45-6.95a.25.25,0,0,0-.22-.26.24.24,0,0,0-.27.19l-1.07,6-2.78-6.21a.27.27,0,0,0-.33-.14.23.23,0,0,0-.15.29v0l2.78,7.28-6.14-1.23a.25.25,0,0,0-.13.47l5.83,2-2.09,1.74a.23.23,0,0,0,0,.32.26.26,0,0,0,.32.08l2.34-1.11-.27,4.69a.24.24,0,0,0,.21.25.26.26,0,0,0,.28-.19l.86-4.14,2.71,4.72a.25.25,0,0,0,.24.14h.07a.24.24,0,0,0,.14-.3l-2.57-5.45,7.07,1.79a.24.24,0,0,0,.14-.45l-6.7-2.49,7-4.69a.23.23,0,0,0,.06-.31.24.24,0,0,0-.32-.09" transform="translate(0)"/>
  </g>
  <g>
    <path class="cls-4" d="M72.37,28.11l-7.49,4.1.45-7a.25.25,0,0,0-.22-.26.24.24,0,0,0-.27.19l-1.07,6L61,25a.27.27,0,0,0-.33-.14.23.23,0,0,0-.15.29v0l2.78,7.28-6.14-1.23a.25.25,0,0,0-.13.47l5.83,2-2.09,1.74a.23.23,0,0,0,0,.32.26.26,0,0,0,.32.08l2.34-1.11-.27,4.69a.24.24,0,0,0,.21.25.26.26,0,0,0,.28-.19l.86-4.14L67.19,40a.25.25,0,0,0,.24.14h.07a.24.24,0,0,0,.14-.3l-2.57-5.45,7.07,1.79a.24.24,0,0,0,.14-.45l-6.7-2.49,7-4.69a.23.23,0,0,0,.06-.31.24.24,0,0,0-.32-.09" transform="translate(0)"/>
    <path class="cls-4" d="M15.52,72.81,8,76.91,8.48,70a.25.25,0,0,0-.22-.26.24.24,0,0,0-.27.19l-1.07,6L4.14,69.68a.27.27,0,0,0-.33-.14.23.23,0,0,0-.15.29v0l2.78,7.28L.31,75.89a.26.26,0,0,0-.3.17.25.25,0,0,0,.17.3l5.83,2-2.1,1.7a.23.23,0,0,0,0,.32.26.26,0,0,0,.32.08l2.34-1.11L6.27,84a.24.24,0,0,0,.21.25.26.26,0,0,0,.28-.19L7.62,80l2.71,4.72a.25.25,0,0,0,.24.14h.07a.24.24,0,0,0,.14-.3L8.22,79l7.07,1.79a.24.24,0,0,0,.14-.45L8.73,77.9l7-4.69a.23.23,0,0,0,.06-.31.24.24,0,0,0-.32-.09" transform="translate(0)"/>
  </g>
</svg>
