<svg xmlns="http://www.w3.org/2000/svg" viewBox="0 0 164.85 56.75">
  <defs>
    <style>
      .cls-1 {
        fill: #fff;
      }

      .cls-2 {
        fill: #8f7bb5;
      }
    </style>
  </defs>
  <title>cta</title>
  <g id="Layer_1" data-name="Layer 1">
    <path class="cls-1" d="M136.47,56.75H28.37A28.38,28.38,0,0,1,28.37,0h108.1a28.38,28.38,0,1,1,0,56.75"/>
  </g>
  <g id="Layer_2" data-name="Layer 2">
    <g>
      <path class="cls-2" d="M24.62,21.24V35.72h6.44V33.67H26.81V21.24Z"/>
      <path class="cls-2" d="M40.36,21.24h-8V35.72h8V33.67H34.56V28.83H40.2V26.77H34.56V23.29h5.81Z"/>
      <path class="cls-2" d="M53.26,35.72h2.39L48.74,20.33,41.57,35.72h2.35l1.61-3.52h6.2Zm-6.81-5.57,2.25-4.92,2.15,4.92Z"/>
      <path class="cls-2" d="M63.93,28.13a4.11,4.11,0,0,0,.88-2.65,4,4,0,0,0-1.41-3.17,6.4,6.4,0,0,0-4.15-1.08H56.7V35.72h2.19V29.79h.39l4.14,5.93h2.67L61.6,29.55A3.93,3.93,0,0,0,63.93,28.13Zm-5-4.84h.78q3,0,3,2.22,0,2.37-3.11,2.37h-.69Z"/>
      <path class="cls-2" d="M69.68,35.72V25.58l10.56,11V21.24H78.06V31.3L67.49,20.25V35.72Z"/>
      <path class="cls-2" d="M89.09,35.72,90.65,27l4.17,9.42L99.1,27l1.4,8.74h2.24L100,20.15,94.85,31.41l-5-11.26-3,15.57Z"/>
      <path class="cls-2" d="M106.39,34a7.65,7.65,0,0,0,10.45-.24,7.12,7.12,0,0,0,2.23-5.3A7.57,7.57,0,0,0,111.54,21a7.38,7.38,0,0,0-5.37,2.2,7.09,7.09,0,0,0-2.24,5.25A7.12,7.12,0,0,0,106.39,34Zm1.3-9.45a5.4,5.4,0,0,1,7.63,0,5.62,5.62,0,0,1,0,7.77,5.38,5.38,0,0,1-9.16-3.92,5.23,5.23,0,0,1,1.56-3.85Z"/>
      <path class="cls-2" d="M128.29,28.13a4.12,4.12,0,0,0,.88-2.65,4,4,0,0,0-1.41-3.17,6.4,6.4,0,0,0-4.15-1.08h-2.56V35.72h2.19V29.79h.39l4.14,5.93h2.67L126,29.55A3.93,3.93,0,0,0,128.29,28.13Zm-5-4.84H124q3,0,3,2.22,0,2.37-3.1,2.37h-.69Z"/>
      <path class="cls-2" d="M140.23,21.24h-8V35.72h8V33.67h-5.81V28.83h5.64V26.77h-5.64V23.29h5.81Z"/>
    </g>
  </g>
</svg>
