<svg id="Layer_1" data-name="Layer 1" xmlns="http://www.w3.org/2000/svg" viewBox="0 0 69.72 12.75">
  <defs>
    <style>
      .cls-1 {
        fill: #fff;
      }
    </style>
  </defs>
  <title>racing_stripe_top</title>
  <polygon class="cls-1" points="21.38 0 20.71 3.13 24.2 3.13 23.55 4.36 14.94 4.36 14.28 5.62 20.18 5.64 19.59 8.41 24.9 8.41 24.24 9.67 15.77 9.67 15.12 10.93 19.05 10.93 18.66 12.75 67.01 12.75 69.72 0 21.38 0"/>
  <path class="cls-1" d="M7.95,3.15,4.11,5.25l.23-3.56a.13.13,0,0,0-.11-.14.12.12,0,0,0-.14.1L3.54,4.72,2.12,1.54a.14.14,0,0,0-.17-.07.12.12,0,0,0-.07.16L3.3,5.35.16,4.72A.13.13,0,0,0,0,4.81.13.13,0,0,0,.09,5l3,1L2,6.86A.12.12,0,0,0,2,7a.13.13,0,0,0,.17,0l1.2-.57L3.21,8.9A.12.12,0,0,0,3.32,9a.13.13,0,0,0,.14-.1L3.9,6.8,5.29,9.22a.13.13,0,0,0,.12.07h0a.12.12,0,0,0,.07-.15L4.21,6.34l3.62.92A.12.12,0,0,0,8,7.18.12.12,0,0,0,7.9,7L4.47,5.76l3.61-2.4a.12.12,0,0,0,0-.16.12.12,0,0,0-.16,0"/>
</svg>
