<svg id="Layer_1" data-name="Layer 1" xmlns="http://www.w3.org/2000/svg" viewBox="0 0 76.69 20.56">
  <defs>
    <style>
      .cls-1 {
        fill: #fff;
      }
    </style>
  </defs>
  <title>racing_stripe_btm</title>
  <polygon class="cls-1" points="23.77 0 22.27 7.05 25.81 7.05 25.14 8.31 16.46 8.31 15.8 9.57 21.74 9.57 20.57 15.02 25.86 15.02 25.21 16.26 16.78 16.26 16.12 17.52 20.04 17.52 19.39 20.56 72.32 20.56 76.69 0 23.77 0"/>
  <path class="cls-1" d="M7.95,11l-3.84,2.1.23-3.56a.13.13,0,0,0-.11-.14.12.12,0,0,0-.14.1l-.55,3.07L2.12,9.36a.14.14,0,0,0-.17-.07.12.12,0,0,0-.07.16L3.3,13.17.16,12.54a.13.13,0,0,0-.15.09.13.13,0,0,0,.09.15l3,1L2,14.68a.12.12,0,0,0,0,.16.13.13,0,0,0,.17,0l1.2-.57-.14,2.4a.12.12,0,0,0,.11.13.13.13,0,0,0,.14-.1l.44-2.12L5.29,17a.13.13,0,0,0,.12.07h0A.12.12,0,0,0,5.53,17L4.21,14.16l3.62.92A.12.12,0,0,0,8,15a.12.12,0,0,0-.07-.15L4.47,13.58l3.61-2.4a.12.12,0,0,0,0-.16.12.12,0,0,0-.16,0"/>
</svg>
