<svg id="Layer_1" data-name="Layer 1" xmlns="http://www.w3.org/2000/svg" viewBox="0 0 402.04 198.4">
  <title>logo2</title>
  <polygon points="82.21 143.99 118.89 0 157.78 143.99 82.21 143.99" fill="#95e5e5"/>
  <polygon points="0 143.99 36.68 0 75.56 143.99 0 143.99" fill="#ff8080"/>
  <path d="M326,198.4H228.9a40,40,0,0,1-40-40H366A40,40,0,0,1,326,198.4Z" transform="translate(0 0)" fill="#eaca44"/>
  <polygon points="239.99 143.99 157.78 143.99 118.89 0 239.99 143.99" fill="#d0efed"/>
  <polygon points="158.41 143.99 75.56 143.99 36.68 0 158.41 143.99" fill="#ffe6e6"/>
  <path d="M356,198.4H258.9a40,40,0,0,1-40-40H396A40,40,0,0,1,356,198.4Z" transform="translate(0 0)" fill="#ffe67b"/>
  <path d="M316.67,0H280.43a64,64,0,0,0-64,64V80a64,64,0,0,0,64,64h36.24a64,64,0,0,0,64-64V64A64,64,0,0,0,316.67,0Zm37.7,77.3a42.44,42.44,0,0,1-42.44,42.43h-24A42.43,42.43,0,0,1,245.48,77.3V66.7a42.43,42.43,0,0,1,42.43-42.44h24A42.44,42.44,0,0,1,354.37,66.7Z" transform="translate(0 0)" fill="#dbead3"/>
  <path d="M338,0H301.8a64,64,0,0,0-64,64V80a64,64,0,0,0,64,64H338a64,64,0,0,0,64-64V64A64,64,0,0,0,338,0Zm36.33,77.3a42.44,42.44,0,0,1-42.44,42.43h-24A42.43,42.43,0,0,1,265.48,77.3V66.7a42.43,42.43,0,0,1,42.43-42.44h24A42.44,42.44,0,0,1,374.37,66.7Z" transform="translate(0 0)" fill="#aed599"/>
</svg>
