<svg id="Layer_1" data-name="Layer 1" xmlns="http://www.w3.org/2000/svg" viewBox="0 0 814.7 199.36">
  <title>name-style</title>
  <path d="M518.12,187.19a379.71,379.71,0,0,0,99.31-71.92C660.81,71.53,606.51-.38,558.18,17.71S384.88,71,390.17,95.4s-17.09,97.87,60.67,103.92c4.37.34,14-1.82,22.09-1.42,13.71.68,29.54-3,44.51-10.37Z" fill="#66c4e0"/>
  <path d="M6.86,181.62c-1-4.14-2.38-7.38-2.46-10.62-.65-27.06-.86-54.11-1.64-81.16C2.39,77.24,1,64.65.18,52.05-.7,38.36.77,38.13,24.88,33.78,61.06,27.24,98.47,25.53,136,23.59c30.69-1.6,61.24-3.19,92-4.4,20.4-.8,41,.18,61.55.16,16.43,0,32.86-.26,49.29-.56s32.88-.77,49.32-1.15c8.81-.21,14.37,2,16.42,6.63,3.14,7.12,6.49,14.22,9.17,21.39,7.06,18.89,16.59,37.67,19.59,56.75,1.68,10.68,13.79,18.8,15.25,29.06,1.31,9.15,4.89,18.21,8,29.07-7.72-1.79-74.19,5.8-80.77,6.29-31.16,2.33-62.46,4.13-93.75,5.9-60,3.38-119.92,6.14-180,8.67C71.37,182.68,40.44,181.62,6.86,181.62Z" fill="#ff8080"/>
  <path d="M718.72,151.12c25.23,1.48,50.15-4.42,72.74-15.75,35.29-17.71,27.3-106.82-3.27-114s-106.29-36-110.49-12-36.94,77.82,2.2,120.27c2.2,2.39,7.88,5.09,12,9.31a40.55,40.55,0,0,0,26.35,12.14Z" fill="#ebd153"/>
</svg>
